<?xml version="1.0" encoding="utf-8"?>
<!-- Generator: Adobe Illustrator 15.1.0, SVG Export Plug-In . SVG Version: 6.00 Build 0)  -->
<!DOCTYPE svg PUBLIC "-//W3C//DTD SVG 1.1//EN" "http://www.w3.org/Graphics/SVG/1.1/DTD/svg11.dtd">
<svg version="1.1" id="Layer_1" xmlns="http://www.w3.org/2000/svg" xmlns:xlink="http://www.w3.org/1999/xlink" x="0px" y="0px"
	 width="612px" height="85px" viewBox="0 207.305 612 85" enable-background="new 0 207.305 612 85" xml:space="preserve">
<g>
	<path d="M29.987,272.701h-1.984l17.221-43.338h0.26l17.229,43.338h-2.061l-3.352-8.523H33.349L29.987,272.701z M45.353,233.951
		l-11.328,28.482h22.574L45.353,233.951z"/>
	<path d="M63.942,273.537h-3.867l-3.348-8.512H33.925l-3.355,8.512h-3.799l17.879-45.01h1.143l0.471,0.521L63.942,273.537z
		 M61.226,271.863h0.25l-16.123-40.559L29.24,271.863h0.186l3.355-8.504h25.09L61.226,271.863z M57.827,263.273H32.792
		l12.561-31.592L57.827,263.273z M35.251,261.6h20.115l-10.014-25.375L35.251,261.6z"/>
	<path d="M93.03,230.408h12.867c7.592,0,11.512,4.412,11.512,10.016c0,4.281-1.998,7.268-5.67,8.824
		c5.734,1.441,9.332,5.652,9.332,11.459c0,6.648-4.412,11.99-13.18,11.99H93.03V230.408z M106.958,248.691
		c5.965,0,8.453-3.535,8.453-8.268c0-4.674-2.982-8.268-9.693-8.268H95.015v16.535L106.958,248.691L106.958,248.691z
		 M107.585,270.959c7.955,0,11.5-4.473,11.5-10.252c0-5.855-3.803-10.277-11.5-10.277h-12.57v20.529H107.585z"/>
	<path d="M107.892,273.537h-15.69v-43.963h13.697c7.502,0,12.348,4.244,12.348,10.852c0,3.816-1.492,6.754-4.352,8.621
		c5.061,1.977,8.012,6.211,8.012,11.66C121.907,268.508,116.403,273.537,107.892,273.537 M93.866,271.863h14.025
		c7.617,0,12.346-4.283,12.346-11.156c0-3.379-1.334-6.232-3.701-8.209c2.188,1.924,3.381,4.734,3.381,8.209
		c0,6.947-4.611,11.092-12.332,11.092H94.187v-22.215h13.398c1.088,0,2.113,0.09,3.084,0.273l-1.545-0.404l0.375-0.16
		c-0.793,0.146-1.639,0.232-2.541,0.232H94.187v-18.213h11.531c6.59,0,10.523,3.4,10.523,9.113c0,2.457-0.617,4.467-1.771,5.984
		c1.396-1.518,2.111-3.512,2.111-5.984c0-5.666-4.096-9.176-10.682-9.176H93.866V271.863z M95.862,270.127h11.723
		c6.779,0,10.662-3.438,10.662-9.42c0-5.918-3.982-9.445-10.662-9.445H95.862V270.127z M95.862,247.857h11.096
		c6.291,0,7.611-4.045,7.611-7.432c0-4.74-3.225-7.438-8.852-7.438h-9.855V247.857z"/>
	<path d="M151.72,230.408h12.859c7.594,0,11.496,4.412,11.496,10.016c0,4.281-1.984,7.268-5.646,8.824
		c5.725,1.441,9.332,5.652,9.332,11.459c0,6.648-4.416,11.99-13.186,11.99H151.72V230.408z M165.638,248.691
		c5.973,0,8.453-3.535,8.453-8.268c0-4.674-2.99-8.268-9.684-8.268H153.71v16.535L165.638,248.691L165.638,248.691z
		 M166.265,270.959c7.955,0,11.508-4.473,11.508-10.252c0-5.855-3.805-10.277-11.508-10.277H153.71v20.529H166.265z"/>
	<path d="M166.575,273.537h-15.699v-43.963h13.707c7.49,0,12.332,4.244,12.332,10.852c0,3.816-1.494,6.766-4.338,8.621
		c5.062,1.977,8.02,6.211,8.02,11.66C180.597,268.508,175.083,273.537,166.575,273.537 M152.548,271.863h14.027
		c7.619,0,12.352-4.283,12.352-11.156c0-3.355-1.322-6.201-3.658-8.164c2.156,1.932,3.344,4.713,3.344,8.164
		c0,6.947-4.617,11.092-12.348,11.092h-13.398v-22.215h13.398c1.088,0,2.104,0.09,3.072,0.262l-1.531-0.393l0.367-0.16
		c-0.785,0.146-1.637,0.232-2.535,0.232h-12.771v-18.213h11.541c6.588,0,10.523,3.4,10.523,9.113c0,2.422-0.6,4.422-1.738,5.934
		c1.375-1.512,2.059-3.488,2.059-5.934c0-5.666-4.098-9.176-10.668-9.176h-12.035L152.548,271.863L152.548,271.863z
		 M154.534,270.127h11.73c6.787,0,10.674-3.438,10.674-9.42c0-5.918-3.992-9.445-10.674-9.445h-11.73V270.127z M154.534,247.857
		h11.104c6.295,0,7.621-4.045,7.621-7.432c0-4.74-3.23-7.438-8.852-7.438h-9.873V247.857z"/>
	<path d="M206.974,251.543c0-12.488,9.695-21.646,21.629-21.646c11.943,0,21.643,9.158,21.643,21.646
		c0,12.512-9.699,21.656-21.643,21.656C216.669,273.199,206.974,264.055,206.974,251.543 M248.2,251.543
		c0-11.369-8.4-19.84-19.598-19.84c-11.193,0-19.574,8.471-19.574,19.84c0,11.402,8.381,19.844,19.574,19.844
		C239.8,271.387,248.2,262.945,248.2,251.543"/>
	<path d="M228.603,274.027c-12.6,0-22.465-9.873-22.465-22.484c0-12.594,9.865-22.465,22.465-22.465
		c12.609,0,22.475,9.871,22.475,22.465C251.077,264.154,241.212,274.027,228.603,274.027 M228.603,230.738
		c-11.658,0-20.793,9.135-20.793,20.805c0,11.875,8.938,20.82,20.793,20.82c11.852,0,20.803-8.945,20.803-20.82
		C249.405,239.873,240.272,230.738,228.603,230.738 M228.603,272.227c-11.633,0-20.418-8.883-20.418-20.684
		c0-11.785,8.785-20.672,20.418-20.672c11.646,0,20.424,8.887,20.424,20.672C249.026,263.344,240.249,272.227,228.603,272.227
		 M228.603,232.549c-10.688,0-18.742,8.158-18.742,18.994c0,10.842,8.055,19.016,18.742,19.016c10.695,0,18.766-8.174,18.766-19.016
		C247.368,240.707,239.298,232.549,228.603,232.549"/>
	<polygon points="287.11,232.154 273.562,232.154 273.562,230.406 302.659,230.406 302.659,232.154 289.097,232.154 
		289.097,272.695 287.11,272.695 	"/>
	<path d="M289.923,273.543h-3.66v-40.555H272.72v-3.412h30.777v3.412h-13.574V273.543z M287.944,271.863h0.311v-40.547l13.57-0.066
		l-27.432,0.066h13.551V271.863z"/>
	<polygon points="381.161,229.266 381.413,229.266 400.688,254.562 419.972,229.266 420.212,229.266 420.212,272.432 
		418.345,272.432 418.345,234.488 400.688,257.441 400.499,257.441 383.026,234.488 383.026,272.432 381.161,272.432 	"/>
	<path d="M421.046,273.268h-3.539v-36.319l-16.406,21.319h-0.836l-0.432-0.317l-15.957-20.977v36.294h-3.551v-44.832h1.252
		l0.508,0.316l18.598,24.424l18.877-24.74h1.244l0.242,0.83V273.268z M419.179,271.592h0.195v-40.377l-18.691,24.732l-18.686-24.541
		l0.207,40.186v-39.578l18.514,24.312l18.461-24.301V271.592z"/>
	<path d="M452.528,272.434h-1.996l17.24-43.354h0.237l17.226,43.354h-2.06l-3.354-8.535H455.89L452.528,272.434z M467.894,233.68
		l-11.311,28.477h22.568L467.894,233.68z"/>
	<path d="M486.485,273.262h-3.875l-3.355-8.522H456.46l-3.359,8.522h-3.803l17.904-45.033h1.141l0.451,0.523L486.485,273.262z
		 M483.751,271.592h0.252l-16.113-40.555l-16.131,40.555h0.193l3.367-8.52h25.086L483.751,271.592z M480.378,262.992h-25.029
		l12.541-31.586L480.378,262.992z M457.815,261.324h20.09l-10.017-25.373L457.815,261.324z"/>
	<rect x="515.808" y="230.131" width="1.984" height="42.301"/>
	<path d="M518.636,273.266h-3.672v-43.965h3.672V273.266z M516.64,271.588h0.322v-40.609h-0.322V271.588z"/>
	<polygon points="553.921,234.166 553.921,272.438 552.114,272.438 552.114,229.078 552.366,229.078 581.958,268.377 
		581.958,230.131 583.765,230.131 583.765,273.482 583.521,273.482 	"/>
	<path d="M584.61,274.314h-1.519l-0.244-0.334l-28.088-37.306v36.593h-3.481v-45.04h1.252l0.51,0.344l28.074,37.307v-36.578h3.496
		V274.314L584.61,274.314z M552.948,271.592h0.146v-39.926l29.844,39.639l-0.151-40.324v39.91l-29.838-39.649V271.592z"/>
	<rect x="319.978" y="249.984" width="32.003" height="1.29"/>
	<rect x="319.978" y="249.984" width="32.003" height="1.29"/>
	<path d="M336.247,267.58h-1.314v-16.855c0-4.104,1.277-5.281,11.138-14.449l1.989-1.848l0.886,0.949l-1.982,1.857
		c-9.701,9.016-10.715,9.959-10.715,13.491L336.247,267.58L336.247,267.58z"/>
	<path d="M336.247,267.58h-1.314v-16.855c0-4.104,1.277-5.281,11.138-14.449l1.989-1.848l0.886,0.949l-1.982,1.857
		c-9.701,9.016-10.715,9.959-10.715,13.491L336.247,267.58L336.247,267.58z"/>
</g>
</svg>
