<?xml version="1.0" encoding="utf-8"?>
<!-- Generator: Adobe Illustrator 15.1.0, SVG Export Plug-In . SVG Version: 6.00 Build 0)  -->
<!DOCTYPE svg PUBLIC "-//W3C//DTD SVG 1.1//EN" "http://www.w3.org/Graphics/SVG/1.1/DTD/svg11.dtd">
<svg version="1.1" id="Layer_1" xmlns="http://www.w3.org/2000/svg" xmlns:xlink="http://www.w3.org/1999/xlink" x="0px" y="0px"
	 width="612px" height="85px" viewBox="0 0 612 85" enable-background="new 0 0 612 85" xml:space="preserve">
<g>
	<path fill="#FFFFFF" d="M28.987,64.701h-1.984l17.221-43.338h0.26l17.229,43.338h-2.061L56.3,56.178H32.349L28.987,64.701z
		 M44.353,25.951L33.025,54.434h22.574L44.353,25.951z"/>
	<path fill="#FFFFFF" d="M62.942,65.537h-3.867l-3.348-8.512H32.925l-3.355,8.512h-3.799l17.879-45.01h1.143l0.471,0.521
		L62.942,65.537z M60.226,63.863h0.25L44.353,23.305L28.24,63.863h0.186l3.355-8.504h25.09L60.226,63.863z M56.827,55.273H31.792
		l12.561-31.592L56.827,55.273z M34.251,53.6h20.115L44.352,28.225L34.251,53.6z"/>
	<path fill="#FFFFFF" d="M92.03,22.408h12.867c7.592,0,11.512,4.412,11.512,10.016c0,4.281-1.998,7.268-5.67,8.824
		c5.734,1.441,9.332,5.652,9.332,11.459c0,6.648-4.412,11.99-13.18,11.99H92.03V22.408z M105.958,40.691
		c5.965,0,8.453-3.535,8.453-8.269c0-4.674-2.982-8.269-9.693-8.269H94.015v16.535L105.958,40.691L105.958,40.691z M106.585,62.959
		c7.955,0,11.5-4.473,11.5-10.252c0-5.855-3.803-10.277-11.5-10.277h-12.57v20.529H106.585z"/>
	<path fill="#FFFFFF" d="M106.892,65.537h-15.69V21.574h13.697c7.502,0,12.348,4.244,12.348,10.852c0,3.816-1.492,6.754-4.352,8.621
		c5.061,1.977,8.012,6.211,8.012,11.66C120.907,60.508,115.403,65.537,106.892,65.537 M92.866,63.863h14.025
		c7.617,0,12.346-4.283,12.346-11.156c0-3.379-1.334-6.232-3.701-8.209c2.188,1.924,3.381,4.734,3.381,8.209
		c0,6.947-4.611,11.092-12.332,11.092H93.187V41.584h13.398c1.088,0,2.113,0.09,3.084,0.273l-1.545-0.404l0.375-0.16
		c-0.793,0.146-1.639,0.232-2.541,0.232H93.187V23.312h11.531c6.59,0,10.523,3.399,10.523,9.112c0,2.457-0.617,4.468-1.771,5.984
		c1.396-1.519,2.111-3.513,2.111-5.984c0-5.666-4.096-9.176-10.682-9.176H92.866V63.863z M94.862,62.127h11.723
		c6.779,0,10.662-3.438,10.662-9.42c0-5.918-3.982-9.445-10.662-9.445H94.862V62.127z M94.862,39.857h11.096
		c6.291,0,7.611-4.045,7.611-7.433c0-4.739-3.225-7.438-8.852-7.438h-9.855V39.857z"/>
	<path fill="#FFFFFF" d="M150.72,22.408h12.859c7.594,0,11.496,4.412,11.496,10.016c0,4.281-1.984,7.268-5.646,8.824
		c5.725,1.441,9.332,5.652,9.332,11.459c0,6.648-4.416,11.99-13.186,11.99H150.72V22.408z M164.638,40.691
		c5.973,0,8.453-3.535,8.453-8.269c0-4.674-2.99-8.269-9.684-8.269H152.71v16.535L164.638,40.691L164.638,40.691z M165.265,62.959
		c7.955,0,11.508-4.473,11.508-10.252c0-5.855-3.805-10.277-11.508-10.277H152.71v20.529H165.265z"/>
	<path fill="#FFFFFF" d="M165.575,65.537h-15.699V21.574h13.707c7.49,0,12.332,4.244,12.332,10.852c0,3.816-1.494,6.766-4.338,8.621
		c5.062,1.977,8.02,6.211,8.02,11.66C179.597,60.508,174.083,65.537,165.575,65.537 M151.548,63.863h14.027
		c7.619,0,12.352-4.283,12.352-11.156c0-3.355-1.322-6.201-3.658-8.164c2.156,1.932,3.344,4.713,3.344,8.164
		c0,6.947-4.617,11.092-12.348,11.092h-13.398V41.584h13.398c1.088,0,2.104,0.09,3.072,0.262l-1.531-0.393l0.367-0.16
		c-0.785,0.146-1.637,0.232-2.535,0.232h-12.771V23.312h11.541c6.588,0,10.523,3.399,10.523,9.112c0,2.423-0.6,4.423-1.738,5.935
		c1.375-1.512,2.059-3.488,2.059-5.935c0-5.666-4.098-9.176-10.668-9.176h-12.035L151.548,63.863L151.548,63.863z M153.534,62.127
		h11.73c6.787,0,10.674-3.438,10.674-9.42c0-5.918-3.992-9.445-10.674-9.445h-11.73V62.127z M153.534,39.857h11.104
		c6.295,0,7.621-4.045,7.621-7.433c0-4.739-3.23-7.438-8.852-7.438h-9.873V39.857z"/>
	<path fill="#FFFFFF" d="M205.974,43.543c0-12.488,9.695-21.646,21.629-21.646c11.943,0,21.643,9.158,21.643,21.646
		c0,12.512-9.699,21.656-21.643,21.656C215.669,65.199,205.974,56.055,205.974,43.543 M247.2,43.543
		c0-11.369-8.4-19.84-19.598-19.84c-11.193,0-19.574,8.471-19.574,19.84c0,11.402,8.381,19.844,19.574,19.844
		C238.8,63.387,247.2,54.945,247.2,43.543"/>
	<path fill="#FFFFFF" d="M227.603,66.027c-12.6,0-22.465-9.873-22.465-22.484c0-12.594,9.865-22.465,22.465-22.465
		c12.609,0,22.475,9.871,22.475,22.465C250.077,56.154,240.212,66.027,227.603,66.027 M227.603,22.738
		c-11.658,0-20.793,9.135-20.793,20.805c0,11.875,8.938,20.82,20.793,20.82c11.852,0,20.803-8.945,20.803-20.82
		C248.405,31.873,239.272,22.738,227.603,22.738 M227.603,64.227c-11.633,0-20.418-8.883-20.418-20.684
		c0-11.785,8.785-20.672,20.418-20.672c11.646,0,20.424,8.887,20.424,20.672C248.026,55.344,239.249,64.227,227.603,64.227
		 M227.603,24.549c-10.688,0-18.742,8.158-18.742,18.994c0,10.842,8.055,19.016,18.742,19.016c10.695,0,18.766-8.174,18.766-19.016
		C246.368,32.707,238.298,24.549,227.603,24.549"/>
	<polygon fill="#FFFFFF" points="286.11,24.154 272.562,24.154 272.562,22.406 301.659,22.406 301.659,24.154 288.097,24.154 
		288.097,64.695 286.11,64.695 	"/>
	<path fill="#FFFFFF" d="M288.923,65.543h-3.66V24.988H271.72v-3.412h30.777v3.412h-13.574V65.543z M286.944,63.863h0.311V23.316
		l13.57-0.066l-27.432,0.066h13.551V63.863z"/>
	<polygon fill="#FFFFFF" points="380.161,21.266 380.413,21.266 399.688,46.562 418.972,21.266 419.212,21.266 419.212,64.432 
		417.345,64.432 417.345,26.488 399.688,49.441 399.499,49.441 382.026,26.488 382.026,64.432 380.161,64.432 	"/>
	<path fill="#FFFFFF" d="M420.046,65.268h-3.539V28.949l-16.406,21.318h-0.836l-0.432-0.316l-15.957-20.977v36.293h-3.551V20.436
		h1.252l0.508,0.316l18.598,24.424l18.877-24.74h1.244l0.242,0.83V65.268z M418.179,63.592h0.195V23.215l-18.691,24.732
		l-18.686-24.541l0.207,40.186V24.014l18.514,24.312l18.461-24.301V63.592z"/>
	<path fill="#FFFFFF" d="M451.528,64.434h-1.996l17.24-43.354h0.236l17.227,43.354h-2.061l-3.354-8.535H454.89L451.528,64.434z
		 M466.894,25.68l-11.311,28.478h22.568L466.894,25.68z"/>
	<path fill="#FFFFFF" d="M485.485,65.262h-3.875l-3.355-8.521H455.46l-3.359,8.521h-3.803l17.904-45.033h1.141l0.451,0.523
		L485.485,65.262z M482.751,63.592h0.252L466.89,23.037l-16.131,40.555h0.193l3.367-8.52h25.086L482.751,63.592z M479.378,54.992
		h-25.029l12.541-31.586L479.378,54.992z M456.815,53.324h20.09l-10.018-25.373L456.815,53.324z"/>
	<rect x="514.808" y="22.131" fill="#FFFFFF" width="1.984" height="42.301"/>
	<path fill="#FFFFFF" d="M517.636,65.266h-3.672V21.301h3.672V65.266z M515.64,63.588h0.322V22.979h-0.322V63.588z"/>
	<polygon fill="#FFFFFF" points="552.921,26.166 552.921,64.438 551.114,64.438 551.114,21.078 551.366,21.078 580.958,60.377 
		580.958,22.131 582.765,22.131 582.765,65.482 582.521,65.482 	"/>
	<path fill="#FFFFFF" d="M583.61,66.314h-1.52l-0.244-0.334l-28.088-37.307v36.594h-3.48V20.227h1.252l0.51,0.344l28.074,37.308
		V21.3h3.496V66.314L583.61,66.314z M551.948,63.592h0.146V23.666l29.844,39.639l-0.15-40.324v39.91l-29.838-39.648L551.948,63.592
		L551.948,63.592z"/>
	<rect x="318.978" y="41.984" fill="#FFFFFF" width="32.004" height="1.289"/>
	<rect x="318.978" y="41.984" fill="#FFFFFF" width="32.004" height="1.289"/>
	<path fill="#FFFFFF" d="M335.247,59.58h-1.314V42.725c0-4.104,1.277-5.281,11.139-14.449l1.988-1.848l0.887,0.949l-1.982,1.857
		c-9.701,9.016-10.715,9.959-10.715,13.49L335.247,59.58L335.247,59.58z"/>
	<path fill="#FFFFFF" d="M335.247,59.58h-1.314V42.725c0-4.104,1.277-5.281,11.139-14.449l1.988-1.848l0.887,0.949l-1.982,1.857
		c-9.701,9.016-10.715,9.959-10.715,13.49L335.247,59.58L335.247,59.58z"/>
</g>
</svg>
