<?xml version="1.0" encoding="utf-8"?>
<!-- Generator: Adobe Illustrator 14.0.0, SVG Export Plug-In . SVG Version: 6.00 Build 43363)  -->
<!DOCTYPE svg PUBLIC "-//W3C//DTD SVG 1.1//EN" "http://www.w3.org/Graphics/SVG/1.1/DTD/svg11.dtd">
<svg version="1.1" id="Layer_1" xmlns="http://www.w3.org/2000/svg" xmlns:xlink="http://www.w3.org/1999/xlink" x="0px" y="0px"
	 width="612px" height="181.829px" viewBox="0 0 612 181.829" enable-background="new 0 0 612 181.829" xml:space="preserve">
<path d="M443.535,105.069c-1.596-1.979-2.122-4.399-4.261-5.943c-2.408,1.032-5.14,1.27-7.249,3.104
	c-0.356,0.31-0.869,0.577-1.325,0.611c-4.208,0.307-7.16,3.03-10.298,5.351c-2.159,1.599-4.324,3.202-6.007,5.363
	c-0.649,0.833-1.415,1.784-2.88,0.992c0.206-2.523,2.534-3.467,3.942-5.417c0.74-2.521-0.633-4.749-1.625-6.64
	c-2.078-2.365-4.651-2.341-7.21-2.874c-4.47,1.32-8.497,3.049-11.362,6.728c-0.3,0.382-0.739,0.652-1.104,0.983
	c-2.264,2.061-4.595,4.048-6.303,6.646c-0.396,0.603-1.03,1.045-1.563,1.553c-1.149,1.089-2.359,2.119-3.441,3.27
	c-2.253,2.404-4.438,4.871-6.655,7.315c-1.292,1.741-1.292,1.741-3.126,3.058c3.74-8.193,8.007-15.706,12.959-22.873
	c-0.356-1.662-0.613-3.393-2.421-4.467c-1.566-0.077-3.206-0.747-5.236-0.358c-0.209,1.075-0.632,2.142-0.572,3.176
	c0.138,2.336-0.692,4.327-1.794,6.258c-1.089,1.92-2.249,3.795-3.301,5.553c-0.346,1.677-0.374,3.373-1.042,4.762
	c-2.347,4.858-3.832,10.113-6.742,14.713c-0.313,0.494-0.423,1.133-0.584,1.717c-0.39,1.403-0.75,2.814-1.119,4.208
	c0.214,2.24,1.234,3.926,3.486,4.793c2.222-0.733,3.594-2.428,4.899-4.225c0.719-0.987,1.467-1.966,2.307-2.85
	c1.933-2.044,4.045-3.929,5.871-6.056c2.264-2.638,4.787-4.948,7.547-7.034c1.646-1.246,3.304-2.492,4.854-3.855
	c4.042-3.554,7.271-7.858,10.86-11.83c0.161-0.182,0.361-0.329,0.645-0.576c0.862-0.295,1.835-0.629,3.397-1.165
	c-2.498,5.65-5.586,10.212-8.369,14.948c-2.841,4.825-4.863,10.126-8.428,14.559c-0.311,3.405-0.01,4.667,1.449,5.804
	c0.833,0.263,1.747,0.552,2.535,0.801c1.63-2.612,3.167-5.08,4.655-7.473c3.256-1.285,5.334-3.699,7.211-6.297
	c1.211-1.679,2.148-3.564,3.423-5.186c5.195-6.625,11.184-12.395,18.558-16.586c1.171-0.667,2.365-1.216,3.27-2.318
	c0.81-0.983,1.974-1.363,3.38-0.698c-0.121,0.712-0.099,1.36-0.343,1.89c-3.792,8.265-7.537,16.558-11.496,24.741
	c-1.264,2.617-3.122,4.948-4.766,7.501c-0.272,3.206-0.272,3.206,2.451,6.743c1.333,0.361,2.643,0.38,3.865-0.563
	c0.174-0.282,0.489-0.574,0.541-0.908c0.454-2.983,2.047-5.483,3.355-8.107c2.115-4.244,5.247-8.002,6.152-12.839
	c0.107-0.552,0.671-1.01,0.978-1.536c0.558-0.961,1.251-1.882,1.585-2.917c0.752-2.368,2.073-4.438,3.11-6.653
	C441.54,111.102,442.446,108.04,443.535,105.069"/>
<path d="M536.334,108.132c2.276-2.372,2.484-5.234,2.248-8.367c-0.433-0.769-0.917-1.619-1.276-2.258
	c-2.127-1.604-4.463-0.821-5.944-1.32c-2.641,0.788-4.73,1.413-6.889,2.058c-1.172,1.051-2.436,2.196-3.716,3.333
	c-2.923,2.6-6.041,5.019-8.729,7.842c-2.228,2.336-4.499,4.513-7.294,6.217c-1.408,2.399-4.826,6.377-7.065,8.073
	c0.578-3.203,1.838-5.769,2.926-7.294c0.993-3.152,1.421-5.482,2.469-7.49c0.833-1.599,1.308-3.15,1.348-4.88
	c0.041-1.822,0.008-3.646,0.008-5.247c-1.787-1.597-3.479-1.127-5.342-0.8c-1.992,3.319-3.693,6.76-4.168,10.769
	c-0.212,1.764-0.961,3.465-1.463,5.191c-0.496,1.501-0.573,3.266-1.427,4.478c-0.891,1.269-1.25,2.625-1.792,3.965
	c-0.412,1.012-0.845,2.013-1.276,3.016c-0.336,0.781-0.827,1.528-1.001,2.345c-0.586,2.706-2.019,4.891-3.959,6.808
	c-0.513,2.165-1.255,4.139-2.738,5.947c-1.37,1.668-1.222,3.901-0.532,6.013c0.426,0.307,0.799,0.627,1.223,0.865
	c0.414,0.232,0.88,0.377,1.49,0.63c1.057-1.049,2.081-2.086,3.127-3.102c2.114-2.044,4.386-3.948,6.329-6.142
	c3.24-3.657,6.271-7.502,9.57-11.477c2.256,0.012,3.165-2.116,4.392-3.639c0.731-1.364,1.462-2.728,2.19-4.091
	c1.733-0.444,3.413-1.022,4.232-2.203c2.309-3.315,5.707-5.373,8.631-7.939c1.565-1.375,3.363-2.432,4.291-4.521
	c1.702-0.347,3.026-2.067,5.175-1.318c-0.07,0.616-0.034,1.128-0.194,1.565c-0.945,2.528-1.694,5.166-2.959,7.533
	c-2.876,5.391-5.236,11.043-8.615,16.197c-1.553,2.373-3.155,4.586-5.176,6.523c-0.521,0.499-1.109,0.934-1.726,1.447
	c0.15,1.026,0.286,1.973,0.43,2.956c1.029,0.599,1.951,1.131,2.989,1.733c1.753-2.145,3.805-3.823,3.365-6.764
	c2.679-3.607,5.299-7.136,7.942-10.699c0.603-1.118,1.13-2.377,1.895-3.467c2.262-3.227,4.259-6.599,5.884-10.188
	C535.558,109.651,535.769,108.719,536.334,108.132"/>
<path d="M576.088,99.12c-1.359,0.247-2.553,0.552-3.77,0.672c-4.412,0.444-8.249,2.18-11.631,5.01
	c-0.657,0.546-1.415,0.976-2.141,1.437c-3.723,2.36-7.451,4.713-11.548,7.302H545.8c-1.285,1.412-2.393,2.916-3.781,4.081
	c-1.551,1.299-2.681,2.818-3.652,4.549c-2.027,3.611-3.653,7.469-6.205,10.1c-0.377,1.573-0.631,2.62-0.88,3.664
	c-0.254,1.06-0.497,2.114-0.713,3.012c0.886,1.641,1.63,3.04,2.375,4.431c1.455,0.792,2.852,1.553,3.617,1.968
	c3.003,0.377,5.313,0.669,8.654,1.087c5.249-1.509,11.459-3.293,17.685-5.079c0.541-1.172,0.986-2.142,1.373-2.981
	c-1.321-1.994-1.34-1.974-3.363-2.751c-1.069,0.645-2.05,1.346-3.122,1.857c-2.651,1.261-5.283,2.595-8.036,3.597
	c-2.796,1.021-5.772,1.15-8.692,0.443c-2.209-0.537-4.157-1.524-4.896-3.949c0.361-1.343,0.713-2.64,1.012-3.741
	c2.047-2.164,2.362-5.131,4.402-7.101c2.091-2.016,3.979-4.236,6.076-6.5c0.663,1.062,1.176,1.88,1.667,2.671
	c1.469,0.533,2.843,1.039,4.048,1.479h9.061c2.128-0.938,4.022-1.769,5.096-2.241c5.432-2.914,9.566-6.107,12.792-11.384
	c0.137-0.381,0.556-1.528,0.978-2.684C580.094,104.703,580.228,100.613,576.088,99.12 M571.926,107.734
	c-1.804,2.269-3.439,4.735-5.557,6.662c-2.102,1.914-4.99,2.474-7.829,2.423c-1.692-0.027-3.376-0.454-5.857-0.818
	c2.784-2.279,4.943-4.047,7.151-5.856c3.148-1.411,6.447-2.697,9.015-5.387c1.44-0.347,2.845-0.461,3.74,1.493
	C572.406,106.675,572.276,107.291,571.926,107.734"/>
<path d="M490.014,106.631v-3.843c-3.704-5.782-3.704-5.782-7.158-6.959c-0.755,0.805-1.577,1.677-2.357,2.51
	c0.162,1.385,0.57,2.637,0.386,3.791c-0.305,1.913-0.091,3.63,1.068,5.266c-1.373,3.5-3.009,6.728-5.513,9.464
	c-0.742,0.812-1.579,1.549-2.244,2.418c-2.986,3.901-6.33,7.454-10.039,10.674c-1.94,1.688-4.173,3.144-5.743,5.125
	c-1.675,2.112-4.063,3.046-6.015,4.659c-3.012,2.501-6.272,4.672-10.502,4.322c-0.351-0.03-0.693-0.202-1.222-0.357
	c-0.38-0.778-0.81-1.642-1.14-2.312c0.073-1.229,0.13-2.206,0.216-3.689c1.224-2.146,2.542-4.795,4.179-7.229
	c1.344-2.005,3.18-3.676,4.58-5.646c1.093-1.533,2.435-2.719,3.828-3.933c5.021-4.394,10.731-7.72,16.566-10.846
	c0.952-0.509,2.053-0.773,3.106-1.068c2.528-0.714,4.815-1.777,6.419-3.942c-1.526-2.427-1.648-2.513-4.573-3.28
	c-1.495,2.53-3.936,3.492-6.724,3.796c-2.736,1.903-5.378,3.938-8.712,4.721c-0.666,0.156-1.247,0.735-1.821,1.176
	c-2.706,2.089-5.408,4.187-8.087,6.312c-0.765,0.605-1.441,1.322-2.154,1.993c-1.589,1.503-3.177,3.007-4.767,4.509
	c-0.1-0.079-0.205-0.156-0.304-0.234c-2.227,4.358-4.448,8.716-6.329,12.407c-0.126,2.861-0.222,4.92-0.299,6.678
	c1.311,1.743,2.42,3.208,3.688,4.891c0.604,0.327,1.454,0.79,2.201,1.197c1.247-0.301,2.349-0.475,3.395-0.834
	c2.625-0.899,5.273-1.582,7.632-3.315c3.637-2.667,7.604-4.879,11.429-7.289c0.509-0.319,1.068-0.594,1.505-0.997
	c1.955-1.8,3.697-3.889,5.851-5.403c2.558-1.803,4.576-4.119,6.363-6.503c3.088-4.115,6.553-7.904,9.688-11.968
	C487.978,110.86,489.563,108.847,490.014,106.631"/>
<path d="M176.345,101.356c1.151-0.634,1.819-1.619,2.527-2.665c0.178-0.262,0.355-0.523,0.541-0.78
	c0.224-0.31,0.438-0.632,0.649-0.955c0.531-0.804,1.08-1.637,1.808-2.252c2.633-2.214,4.378-5.141,6.066-7.973
	c0.591-0.989,1.201-2.012,1.839-2.99l0.19-0.291c0.852-1.307,1.657-2.541,2.799-3.605l0.043-0.039l0.059-0.005l8.03-0.565
	c0.191-0.033,0.441-0.082,0.723-0.137c0.795-0.154,1.886-0.364,2.973-0.488c1.885-0.218,3.807-0.379,5.666-0.535
	c0.548-0.047,1.1-0.093,1.648-0.141c1.799-0.157,3.305-0.278,4.739-0.379c0.999-0.069,2.015-0.08,2.997-0.092
	c2.116-0.022,4.303-0.046,6.424-0.66c0.64-0.185,1.279-0.279,1.901-0.279c1.255,0,2.411,0.373,3.438,1.111
	c0.86-0.616,1.611-1.148,2.197-1.563l0.038-0.026l0.044-0.004c0.876-0.072,1.748-0.079,2.591-0.084
	c2.186-0.016,4.25-0.028,6.066-1.194l0.042-0.025l1.012,0.001c3.641,0,3.932-0.054,5.275-0.918
	c-0.132-0.064-0.257-0.131-0.381-0.197c-0.36-0.191-0.688-0.371-0.922-0.318c-0.652,0.155-1.333,0.23-2.08,0.23
	c-1.141,0.001-2.279-0.18-3.38-0.354c-0.51-0.082-1.021-0.161-1.533-0.225c-0.666-0.082-1.427-0.174-2.168-0.15
	c-0.652,0.026-1.318,0.08-1.96,0.133c-0.883,0.07-1.797,0.146-2.698,0.146h-0.095c-1.27-0.012-2.559-0.068-3.806-0.123
	c-1.353-0.06-2.752-0.122-4.126-0.122h-0.154c-4.617,0.019-9.312,0.089-13.853,0.156c-1.519,0.023-3.036,0.045-4.555,0.065
	c-0.906,0.016-1.821,0.01-2.732,0.004c-0.458-0.002-0.917-0.004-1.375-0.004c-1.281,0-2.792,0.016-4.287,0.132l-0.022,0.003
	l-0.022-0.006c-0.318-0.061-0.606-0.14-0.881-0.242l-0.182-0.066l0.093-0.17c0.28-0.505,0.539-0.99,0.79-1.461
	c0.537-1.01,1.046-1.965,1.633-2.863c0.559-0.857,1.171-1.699,1.765-2.515c0.825-1.134,1.678-2.309,2.393-3.529
	c1.413-2.414,2.944-4.972,4.764-7.388c0.246-0.325,0.495-0.646,0.744-0.971c1.286-1.663,2.615-3.385,3.338-5.452
	c0.158-0.45,0.546-0.8,0.921-1.139c0.195-0.175,0.397-0.358,0.559-0.548c0.819-0.967,1.698-1.913,2.549-2.828
	c2.481-2.669,5.048-5.432,6.375-9.01c0.408-1.102,0.682-2.267,0.924-3.295c0.101-0.432,0.197-0.844,0.297-1.223
	c-0.067-0.47-0.122-0.912-0.173-1.331c-0.118-0.957-0.219-1.783-0.427-2.585c-0.096-0.375-0.387-0.724-0.667-1.062
	c-0.103-0.122-0.204-0.244-0.296-0.368c-0.121,0.068-0.23,0.124-0.324,0.171c-0.179,0.09-0.308,0.156-0.349,0.229
	c-2.459,4.323-5.197,8.237-8.524,12.907c-0.78,1.095-1.592,2.194-2.378,3.258c-1.295,1.755-2.635,3.57-3.869,5.408
	c-0.96,1.439-2.074,2.787-3.151,4.092c-1.199,1.454-2.44,2.957-3.466,4.58c-0.562,0.889-1.193,1.75-1.804,2.582
	c-0.249,0.34-0.497,0.68-0.743,1.022c-0.909,1.265-1.819,2.529-2.731,3.794l-2.194,3.047c-0.416,0.579-0.819,1.169-1.221,1.756
	c-1.488,2.18-2.895,4.239-4.867,5.642l-0.079,0.03c-0.548,0.059-1.078,0.129-1.606,0.197l-0.422,0.057l0.254-0.575l-0.064,0.001
	c-3.433,0.12-6.982,0.243-10.454,0.654c-0.442,0.053-0.921-0.039-1.375-0.128c-0.567-0.11-1.112-0.19-1.484-0.054
	c-0.91,0.338-1.836,0.503-2.835,0.503c-1.492,0-2.879-0.368-4.155-0.771l-0.381,0.028c-0.125,0.008-0.192,0.012-0.26,0.021
	c-1.475,0.176-2.979,0.278-4.435,0.379c-2.481,0.17-5.047,0.346-7.535,0.889c-0.646,0.143-1.504,0.094-2.307,0.018
	c-0.584-0.055-1.188-0.109-1.76-0.06c-0.462,0.04-0.918,0.296-1.403,0.566c-0.171,0.099-0.347,0.197-0.528,0.288
	c2.632,3.597,6.386,5.418,11.163,5.418c0.22,0,0.438-0.004,0.659-0.012c2.668-0.088,5.382-0.148,8.006-0.209
	c3.031-0.066,6.164-0.137,9.244-0.25c0.603-0.023,1.21-0.025,1.671-0.025l1.394,0.004c1.283,0,2.354-0.028,3.417-0.158l0.195-0.023
	l-0.007,0.195c-0.012,0.273-0.038,0.584-0.209,0.806c-1.365,1.769-2.681,3.628-3.953,5.43c-3.333,4.716-6.778,9.59-11.544,13.457
	c-0.994,2.354-2.618,4.768-4.963,7.376c-1.052,1.172-2.064,2.412-3.045,3.611c-1.153,1.41-2.343,2.868-3.61,4.231
	c-1.615,1.738-3.072,3.681-4.479,5.561c-0.831,1.106-1.69,2.252-2.573,3.346c-0.439,0.545-0.927,1.062-1.398,1.564
	c-1.144,1.221-2.329,2.482-2.869,4.179c-0.121,0.387-0.474,0.722-0.727,0.942c-1.625,1.402-2.834,3.097-4.115,4.89
	c-0.613,0.858-1.247,1.745-1.928,2.594l-0.043,0.038c-0.275,0.171-0.575,0.31-0.891,0.456c-0.942,0.436-1.916,0.89-2.266,2.223
	l0.843,3.76l3.301,2.866l3.767-1.737c0.96-3.268,2.165-6.657,5.213-9.114c0.696-0.559,1.188-1.424,1.663-2.262
	c0.193-0.336,0.39-0.684,0.601-1.01c0.352-0.546,0.693-1.115,1.021-1.667c0.604-1.012,1.229-2.059,1.956-3.01
	c1.486-1.944,3.124-3.822,4.707-5.64l0.44-0.508c0.592-0.681,1.181-1.364,1.77-2.046c2.005-2.326,4.077-4.732,6.238-6.981
	c2.981-3.107,6.402-6.754,9.249-10.758C174.939,102.577,175.56,101.789,176.345,101.356"/>
<path d="M99.124,112.899c1.814-2.718,3.689-5.528,4.127-9.653c-0.247-3.8-0.635-4.545-3.441-6.504
	c-0.312-0.04-0.631-0.06-0.947-0.06c-2.265,0-4.332,1.001-6.33,1.967c-0.628,0.304-1.277,0.619-1.917,0.892
	c-1.273,0.548-2.604,1.034-3.891,1.503c-3.575,1.305-7.272,2.655-10.091,5.413l-0.069,0.041c-1.265,0.384-2.423,0.736-3.42,1.038
	c-3.118,3.398-6.676,5.868-10.353,8.307l-0.323,0.212l0.066-0.381c0.043-0.248,0.066-0.441,0.083-0.594
	c0.031-0.271,0.05-0.436,0.145-0.575c0.55-0.806,1.091-1.64,1.615-2.443c1.912-2.942,3.89-5.985,6.68-8.344
	c0.452-0.386,0.744-0.721,0.919-1.056c1.19-2.28,2.909-4.187,4.568-6.031c1.24-1.376,2.522-2.799,3.573-4.365
	c0.6-0.892,1.314-1.733,2.004-2.546c1.012-1.191,2.06-2.424,2.769-3.843c0.599-1.199,1.511-2.699,2.474-3.098l2.686-3.978
	c1.995-2.955,3.85-5.703,5.716-8.441c0.54-0.793,1.127-1.626,1.832-2.352c0.66-0.68,1.323-1.354,1.987-2.025
	c2.97-3.016,6.042-6.133,8.582-9.649c3.374-4.675,6.104-8.146,8.853-11.257c2.287-2.589,3.017-5.456,2.433-9.576l-5.931-2.198
	c-0.39,0.499-0.78,0.946-1.158,1.379c-0.809,0.928-1.508,1.73-1.858,2.657c-1.176,3.108-3.208,5.576-5.02,7.644
	c-0.3,0.342-0.58,0.753-0.807,1.189c-1.402,2.693-3.327,4.896-5.721,6.546c-0.503,1.118-0.944,2.103-1.131,2.522l-0.027,0.042
	c-0.619,0.708-1.21,1.351-1.782,1.971c-1.218,1.323-2.27,2.465-3.147,3.751c-1.258,1.839-2.967,4.224-5.042,6.359l-0.129,0.133
	c-0.7,0.719-1.495,1.532-1.78,2.426c-0.378,1.188-1.088,2.098-1.774,2.979c-0.123,0.158-0.248,0.316-0.371,0.479
	c-0.522,0.688-1.094,1.369-1.646,2.023c-1.253,1.491-2.548,3.031-3.332,4.756c-1.14,2.506-2.685,4.775-4.182,6.969
	c-0.877,1.285-1.783,2.614-2.592,3.973c-1.929,3.23-4.225,6.311-6.445,9.289c-0.948,1.272-1.929,2.589-2.867,3.897
	c-0.44,0.61-0.869,1.252-1.285,1.871c-0.942,1.403-1.917,2.857-3.077,4.106c-3.033,3.275-5.41,7.031-7.708,10.664
	c-1.605,2.536-3.559,4.789-5.282,6.776c-0.565,0.651-1.113,1.283-1.628,1.9c-0.27,0.539-0.509,1.055-0.741,1.554
	c-0.448,0.968-0.836,1.805-1.377,2.523c-1.041,1.386-2.214,2.708-3.345,3.984c-0.393,0.442-0.785,0.885-1.173,1.333
	c-1.734,1.991-2.661,4.219-2.76,6.62c2.261,1.384,2.246,1.378,4.94,0.884c2.388-2.461,4.734-4.879,7.189-7.411
	c0.047-0.406,0.11-0.959,0.123-1.059l0.027-0.073c0.4-0.588,0.778-1.132,1.137-1.647c0.741-1.062,1.378-1.98,1.966-2.948
	c0.956-1.579,2.052-3.186,3.59-4.222c0.671-0.45,1.366-0.883,2.04-1.303c2.375-1.474,4.829-3.001,6.42-5.505l0.025-0.04l0.042-0.021
	c2.467-1.235,4.566-2.894,6.294-4.352c0.535-0.45,1.104-0.875,1.656-1.284c0.881-0.656,1.79-1.333,2.554-2.121
	c1.241-1.282,2.736-2.312,4.849-3.333c0.693-0.332,1.37-0.739,2.024-1.133c0.269-0.16,0.535-0.321,0.804-0.477
	c0.215-0.125,0.427-0.258,0.639-0.389c0.397-0.247,0.808-0.503,1.237-0.709c1.995-0.971,4.141-2.005,6.31-2.992
	c1.927-0.877,3.515-1.266,5.153-1.266c0.744,0,1.511,0.086,2.278,0.254l0.226,0.048l-0.118,0.199
	c-0.275,0.465-0.526,0.908-0.767,1.332c-0.479,0.844-0.93,1.638-1.443,2.373c-4.112,5.887-9.168,11.399-13.232,15.829
	c-1.022,1.114-2.172,2.139-3.284,3.129c-0.869,0.775-1.77,1.575-2.599,2.413c-1.688,1.701-3.644,3.126-5.981,4.356
	c-0.167,0.086-0.351,0.149-0.529,0.21c-0.289,0.099-0.562,0.193-0.717,0.371c-2.183,2.456-6.466,4.942-10.432,4.943
	c-2.35,0-4.316-0.887-5.693-2.564c-1.725,0.705-2.55,1.82-2.388,3.23c0.264,2.313,3.23,4.979,5.988,5.382
	c0.478,0.069,1.011,0.104,1.583,0.104c4.642,0,11.467-2.287,14.604-4.893c0.519-0.432,0.971-0.822,1.386-1.182
	c0.827-0.718,1.479-1.283,2.211-1.775c3.921-2.639,8.364-5.628,11.776-9.723c0.497-0.601,1.278-0.922,2.104-1.265
	c0.351-0.142,0.714-0.294,1.051-0.465c0.318-0.548,0.625-1.121,0.923-1.678c0.98-1.829,1.995-3.721,3.646-5.262
	c1.453-1.359,2.824-3.072,4.317-5.389C98.546,113.767,98.834,113.335,99.124,112.899"/>
<path d="M257.099,90.458c-0.496,0-1.006,0.025-1.502,0.049c-0.502,0.026-1.021,0.053-1.531,0.053c-0.585,0-1.074-0.033-1.531-0.107
	l-4.076,2.659l-0.014,0.076c-0.162,0.935-0.279,1.616-0.414,2.372c0.585,0.899,1.178,1.812,1.834,2.826l0.105,0.162
	c0.977-0.192,1.892-0.37,2.89-0.563l2.041-0.401l-0.1,0.277c-0.166,0.461-0.314,0.914-0.46,1.355
	c-0.651,1.972-1.211,3.674-2.789,4.98c-0.657,0.544-1.324,1.22-2.04,2.067c-0.547,0.649-1.077,1.34-1.59,2.007
	c-0.963,1.254-1.958,2.551-3.116,3.649c-0.888,0.844-1.753,1.749-2.591,2.623c-1.919,2.006-3.905,4.081-6.334,5.62
	c-0.276,0.173-0.519,0.401-0.775,0.642c-0.101,0.095-0.204,0.192-0.308,0.285c-0.684,0.605-1.348,1.266-1.987,1.904
	c-1.667,1.656-3.389,3.371-5.691,4.375c-0.957,0.415-1.786,1.284-2.488,2.065c-1.997,2.22-4.571,3.624-7.062,4.979
	c-0.7,0.381-1.423,0.774-2.122,1.18c-1.009,0.583-1.907,0.479-2.573-0.305l-0.036-0.041l-0.005-0.055
	c-0.096-1.421,0.716-2.363,1.5-3.274c0.484-0.562,0.983-1.14,1.25-1.821c0.502-1.274,1.189-2.482,1.854-3.647
	c0.29-0.507,0.577-1.012,0.846-1.514l0.047-0.055l3.724-2.77c0.834-1.665,1.875-3.726,3.725-5.258
	c4.024-3.327,8.767-7.292,13.431-11.448c0.331-0.297,0.679-0.584,1.027-0.872c1.392-1.149,2.829-2.338,3.442-4.27l-2.713-4.131
	l-1.816-0.471c-0.295,0.317-0.573,0.647-0.844,0.966c-0.639,0.754-1.243,1.466-2.002,1.981c-2.787,1.89-5.791,3.901-8.879,5.794
	c-2.968,1.817-5.286,3.562-6.963,6.161c-0.685,1.06-1.518,2.04-2.325,2.99c-0.301,0.354-0.602,0.707-0.896,1.064
	c-0.657,0.803-1.326,1.595-1.997,2.388c-2.294,2.718-4.667,5.528-6.478,8.701c-2.425,4.253-3.521,7.766-3.554,11.391
	c-0.007,0.881-0.005,1.757-0.004,2.769l0.003,1.619c0.589,0.81,1.4,1.926,2.123,2.923c2.682,0.229,5.062,0.431,7.449,0.632
	c0.495-0.135,0.997-0.265,1.502-0.397c1.221-0.318,2.48-0.646,3.704-1.046c1.151-0.378,2.13-0.84,2.912-1.379
	c0.965-0.663,1.916-1.388,2.834-2.089c1.093-0.83,2.222-1.691,3.385-2.461c3.392-2.246,6.377-4.923,9.814-8.25
	c0.569-0.551,1.087-1.253,1.501-2.024c0.17-0.318,0.338-0.641,0.506-0.967c1.207-2.324,2.456-4.729,4.802-6.089
	c1.446-0.836,2.395-2.131,3.312-3.383c0.779-1.062,1.583-2.163,2.687-2.978c0.251-0.183,0.513-0.354,0.61-0.416
	c0.343-0.599,0.665-1.175,0.978-1.734c0.704-1.263,1.37-2.455,2.125-3.577c0.694-1.036,1.564-1.961,2.514-2.672
	c2.947-2.209,4.552-4.566,4.905-7.201l-1.26-6.16C260.256,90.671,258.642,90.458,257.099,90.458"/>
<path d="M141.554,110.246c1.479-6.428,0.521-8.447-4.859-10.238c-4.32,0.399-9.296,1.235-13.495,4.375
	c-0.14,0.104-0.297,0.175-0.447,0.242c-0.079,0.035-0.157,0.07-0.231,0.109c-6.489,3.413-13.841,7.281-18.999,13.897l-0.457,0.584
	c-1.99,2.547-4.046,5.179-5.522,8.083l-0.022,0.042c-1.406,2.762-2.861,5.618-1.664,8.931c0.219,0.602,0.136,1.299,0.082,1.757
	c-0.017,0.144-0.032,0.261-0.032,0.344c0.644,4.628,2.937,7.45,7.214,8.853c0.624-0.094,1.264-0.184,1.917-0.275
	c1.638-0.229,3.331-0.469,5.017-0.791c3.031-0.588,5.338-1.124,7.481-1.74c2.347-0.676,3.868-1.873,4.647-3.665
	c0.34-0.786,0.725-1.562,1.095-2.311c0.151-0.304,0.3-0.604,0.444-0.905l-0.974-2.688l-0.057-0.038
	c-0.734-0.472-1.425-0.916-2.223-0.916c-0.384,0-0.774,0.098-1.192,0.304l-1.94,2.854c-3.009,1.998-6.753,3.099-10.542,3.099
	c-1.425,0-2.833-0.155-4.185-0.466l-0.095-0.021l-0.027-0.094c-0.355-1.217-0.066-2.429,0.212-3.601
	c0.239-1.009,0.486-2.051,0.33-3.104c-0.186-1.249,0.413-2.317,0.988-3.35c0.488-0.876,0.994-1.779,1.013-2.785l0.001-0.09
	l0.076-0.047c0.65-0.416,1.156-0.996,1.647-1.558c0.717-0.822,1.459-1.673,2.632-1.943l0.042-0.011l0.04,0.011
	c0.863,0.242,1.68,0.472,2.525,0.71l1.559,0.455l1.625,1.413c3.006,0.791,5.562,0.765,8.355-0.083
	c3.143-0.955,5.776-2.693,7.999-4.248c0.572-0.401,1.169-0.742,1.693-1.043c0.182-0.107,0.353-0.203,0.506-0.294
	c1.355-2.442,3.138-4.402,4.863-6.296C139.659,112.54,140.662,111.438,141.554,110.246 M132.251,108.983
	c-2.22,4.445-6.225,6.205-10.465,8.066c-1.184,0.521-2.408,1.059-3.595,1.659l-0.065,0.033l-3.664-1.337l0.145-0.182
	c0.175-0.222,0.321-0.44,0.451-0.632c0.252-0.38,0.473-0.705,0.79-0.875c2.338-1.223,4.675-2.396,7.381-3.751
	c0.855-0.43,1.746-0.876,2.678-1.346c1.709-1.797,2.677-2.6,3.868-2.6c0.621,0,1.315,0.214,2.4,0.739l0.151,0.074L132.251,108.983z"
	/>
<path d="M211.222,108.573c0.472-0.189,0.919-0.366,1.306-0.62c1-2.595,2.907-4.382,4.753-6.111c0.193-0.18,0.384-0.36,0.576-0.541
	l-0.3-1.149c-1.2-0.214-2.416-0.428-3.734-0.661l-1.774-0.312c-0.233,0.071-0.511,0.125-0.804,0.182
	c-0.71,0.136-1.514,0.289-1.863,0.747c-0.983,1.282-2.308,1.753-3.589,2.21c-0.511,0.181-1.038,0.37-1.531,0.604
	c-0.398,0.193-0.821,0.372-1.228,0.544c-1.058,0.445-2.152,0.908-2.936,1.646c-1.282,1.203-2.727,2.188-4.124,3.139
	c-0.683,0.465-1.389,0.945-2.065,1.444c-0.735,0.541-1.54,0.959-2.326,1.205c-0.28,0.089-0.544,0.253-0.825,0.427
	c-0.45,0.281-0.917,0.569-1.497,0.569c-0.115,0-0.232-0.01-0.347-0.033l-0.14-0.029l0.226-4.672l1.149-1.975
	c-0.212-0.402-0.414-0.784-0.625-1.184l-0.393-0.744l-2.072,0.177c-0.519,0.838-1.002,1.674-1.472,2.484
	c-1.077,1.855-2.093,3.608-3.374,5.162c-1.414,1.716-2.523,3.63-3.595,5.48c-0.247,0.425-0.495,0.851-0.746,1.276
	c-0.357,0.604-0.664,1.258-0.958,1.892c-0.213,0.455-0.435,0.927-0.674,1.379c-0.574,1.085-1.144,2.172-1.714,3.26
	c-1.628,3.104-3.312,6.314-5.089,9.408c-0.229,0.399-0.451,0.826-0.663,1.235c-0.842,1.619-1.711,3.292-3.461,4.106
	c-0.833,1.959-1.012,3.687-0.595,5.752l2.253,1.906c1.221-0.239,2.151-0.422,3.151-0.617c0.885-0.717,1.804-1.457,2.45-1.979
	c0.24-0.574,0.432-1.144,0.616-1.693c0.387-1.15,0.752-2.237,1.461-2.994c2.225-2.367,3.834-5.179,4.924-8.593l0.019-0.062
	l0.057-0.031c0.35-0.197,0.68-0.39,1-0.575c0.701-0.405,1.364-0.789,2.039-1.131c1.67-0.844,2.957-2.184,4.201-3.481
	c0.582-0.606,1.183-1.233,1.817-1.804l0.203-0.185c1.374-1.239,2.794-2.522,4.822-2.857c0.717-0.119,1.425-0.57,1.897-0.9
	c2.221-1.547,4.451-3.169,6.607-4.735l0.264-0.191c0.188-0.138,0.38-0.272,0.571-0.408c1.16-0.819,2.361-1.667,2.991-3.044
	c0.05-0.112,0.155-0.169,0.276-0.235c0.052-0.027,0.107-0.059,0.169-0.098l0.061-0.024c0.594-0.111,1.273-0.233,2.086-0.378
	C209.071,109.43,210.164,108.996,211.222,108.573"/>
<path d="M341.402,122.296c-1.462-1.374-2.709-2.544-4.101-3.848c-3.811-0.806-7.752-1.641-11.961-2.531
	c-0.185-1.225-0.382-2.528-0.546-3.597c1.316-2.479,1.307-2.492,3.136-3.868c2.13-1.606,4.278-3.192,7.116-5.305
	c2.111-0.489,5.072-1.168,8.171-1.878c0.204-1.114,0.401-2.171,0.556-3.025c-0.785-1.373-1.446-2.523-2.143-3.743
	c-3.361,1.142-6.813,2.066-10.047,3.496c-2.621,1.158-5.447,2.098-7.613,4.1c-1.527,1.404-2.897,2.976-4.298,4.435
	c-0.442,2.068-0.879,4.111-1.241,5.811c0.234,2.267,0.44,4.207,0.632,6.082c1.645,3.055,3.947,4.799,7.531,5.234
	c2.583,0.312,5.338,0.934,7.532,3.106c-0.205,0.667-0.267,1.426-0.642,1.971c-1.202,1.758-3.051,2.773-4.747,4.004
	c-3.637,2.634-7.737,4.057-11.869,5.472c-2.011,0.854-4.021,1.709-6.127,2.606c-1.068,2.58-4.883,2.766-5.657,6.194
	c0.223,0.472,0.569,1.209,0.855,1.834c2.175,0.431,3.013-1.215,4.137-2.048c4.868-2.062,9.661-3.971,14.343-6.113
	c4.217-1.927,8.624-3.454,12.575-5.963c1.521-0.965,2.679-2.121,3.322-3.782c0.483-1.252,0.915-2.521,1.381-3.79
	C341.595,125.458,341.493,123.76,341.402,122.296"/>
<path d="M371.902,105.14c0.617-0.992,0.906-2.191,1.351-3.306c-0.428-0.713-0.812-1.358-1.188-1.988
	c-2.003-0.327-3.847-1.34-5.881-0.231c-0.84,2.045-1.7,4.147-2.333,5.688c-1.098,1.399-1.865,2.299-2.55,3.26
	c-1.891,2.668-3.781,5.337-5.607,8.053c-1.026,1.524-2.329,3.032-2.766,4.737c-0.513,2.013-1.78,3.509-2.709,5.197
	c-0.61,1.116-1.251,2.222-1.828,3.374c-0.679,1.353-1.663,2.551-2.445,3.857c-0.837,1.4-1.31,3.158-2.459,4.191
	c-1.38,1.248-1.395,2.865-2.113,4.151c0.327,1.196,0.612,2.24,0.933,3.421c0.864,0.172,1.687,0.339,2.662,0.533
	c2.28-2.868,4.508-5.668,6.636-8.349c0.361-0.967,0.647-1.788,0.973-2.599c0.807-2.022,1.63-4.042,2.447-6.059
	c0.126-0.304,0.25-0.614,0.422-0.891c3.169-5.06,6.165-10.224,10.304-14.615C368.139,111.031,370.05,108.09,371.902,105.14"/>
<path d="M380.305,88.095c-0.262-1.478-0.491-2.77-0.735-4.133c-0.676-0.27-1.341-0.533-2.014-0.803
	c-1.085,0.713-2.095,1.373-3.175,2.079c-0.438,0.935-0.896,1.911-1.352,2.875c0.192,0.979,0.374,1.888,0.536,2.718
	C376.418,91.095,378.731,90.794,380.305,88.095"/>
</svg>
