<?xml version="1.0" encoding="utf-8"?>
<!-- Generator: Adobe Illustrator 14.0.0, SVG Export Plug-In . SVG Version: 6.00 Build 43363)  -->
<!DOCTYPE svg PUBLIC "-//W3C//DTD SVG 1.1//EN" "http://www.w3.org/Graphics/SVG/1.1/DTD/svg11.dtd">
<svg version="1.1" id="Layer_1" xmlns="http://www.w3.org/2000/svg" xmlns:xlink="http://www.w3.org/1999/xlink" x="0px" y="0px"
	 width="547.333px" height="152px" viewBox="0 0 547.333 152" enable-background="new 0 0 547.333 152" xml:space="preserve">
<path d="M118.124,91.006v-0.318c0-22.541,17.62-41.432,40.638-41.432c14.605,0,23.812,6.35,31.748,14.762l-2.382,2.223
	c-7.143-7.618-16.192-13.809-29.525-13.809c-21.113,0-36.987,17.459-36.987,38.095v0.318c0,20.639,16.35,38.416,37.146,38.416
	c13.651,0,22.858-6.826,29.842-14.766l2.381,2.225c-7.461,8.729-17.46,15.715-32.382,15.715
	C135.902,132.436,118.124,113.545,118.124,91.006 M192.3,108.626v-0.319c0-16.666,15.556-25.238,35.398-25.238
	c11.113,0,21.907,2.062,29.844,4.923v-6.668c0-19.207-11.428-28.256-30.002-28.256c-9.842,0-18.096,2.699-26.351,6.666l-1.27-2.855
	c8.731-4.285,17.462-6.984,27.779-6.984c10.954,0,19.526,2.856,25.401,8.73c4.92,4.921,7.777,12.699,7.777,22.541v49.369h-3.334
	v-18.729c-3.334,9.204-15.238,20.637-35.557,20.637C206.429,132.436,192.3,124.34,192.3,108.626 M257.542,101.48V91.322
	c-8.412-3.176-17.619-5.08-29.684-5.08c-17.938,0-32.066,7.301-32.066,21.906v0.313c0,13.974,12.382,20.799,26.351,20.799
	C243.414,129.262,257.542,115.609,257.542,101.48 M260.938,90.846v-0.318c0-23.493,16.032-41.271,38.098-41.271
	c25.082,0,36.51,22.065,36.51,41.907V91.8h-70.958c0.637,22.859,16.668,37.464,36.194,37.464c12.225,0,23.018-7.145,29.367-16.033
	l2.699,1.903c-6.828,9.843-18.254,17.304-32.227,17.304C278.875,132.436,260.938,116.402,260.938,90.846 M331.895,88.781
	c-0.635-18.096-12.064-36.35-33.02-36.35c-19.686,0-33.497,15.557-34.292,36.35H331.895z M339.59,14.65h3.334v115.881h-3.334V14.65z
	 M348.469,96.084V51.161h3.334v44.606c0,19.842,10.32,33.493,30.32,33.493c17.621,0,31.588-15.079,31.588-34.129V51.161h3.336v79.37
	h-3.336v-21.748c-2.539,9.682-13.014,23.652-31.904,23.652C360.377,132.436,348.469,117.988,348.469,96.084 M422.329,51.161h3.332
	v20.317c2.381-10.157,13.176-22.223,27.461-22.223c17.305,0,26.035,10.795,28.893,23.653c3.02-11.431,14.127-23.653,28.412-23.653
	c17.623,0,29.85,11.746,29.85,34.289v46.987h-3.336v-46.67c0-20.638-10.951-31.431-26.666-31.431
	c-13.654,0-27.311,13.65-27.311,31.748v46.354h-3.334v-46.67c0-20.638-10.949-31.431-26.664-31.431
	c-13.648,0-27.305,13.65-27.305,31.748v46.354h-3.332V51.161L422.329,51.161z M107.123,87.305c0-27.639-22.404-50.041-50.042-50.041
	c-11.643,0-22.347,3.985-30.849,10.653c35.136-1.543,47.04,7.074,44.078,34.547c-2.622,24.329,12.161,41.005,16.353,45.198
	C99.067,118.555,107.123,103.873,107.123,87.305z M59.809,71.453c0-18.255-29.299-19.218-38.559-19.066
	C12.461,61.404,7.04,73.719,7.04,87.305c0,27.639,22.404,50.045,50.042,50.045c9.435,0,18.257-2.613,25.789-7.152
	C57.661,109.45,59.809,92.948,59.809,71.453z"/>
</svg>
