<?xml version="1.0" encoding="utf-8"?>
<!-- Generator: Adobe Illustrator 15.1.0, SVG Export Plug-In . SVG Version: 6.00 Build 0)  -->
<!DOCTYPE svg PUBLIC "-//W3C//DTD SVG 1.1//EN" "http://www.w3.org/Graphics/SVG/1.1/DTD/svg11.dtd">
<svg version="1.1" id="Layer_1" xmlns="http://www.w3.org/2000/svg" xmlns:xlink="http://www.w3.org/1999/xlink" x="0px" y="0px"
	 width="547.333px" height="152px" viewBox="0 147 547.333 152" enable-background="new 0 147 547.333 152" xml:space="preserve">
<path d="M118.124,237.594v-0.318c0-22.541,17.62-41.432,40.638-41.432c14.605,0,23.812,6.349,31.748,14.762l-2.382,2.222
	c-7.143-7.618-16.192-13.809-29.525-13.809c-21.113,0-36.987,17.46-36.987,38.096v0.319c0,20.638,16.35,38.416,37.146,38.416
	c13.651,0,22.858-6.826,29.842-14.766l2.381,2.225c-7.461,8.729-17.46,15.715-32.382,15.715
	C135.902,279.023,118.124,260.133,118.124,237.594"/>
<path d="M192.3,255.214v-0.319c0-16.666,15.556-25.239,35.398-25.239c11.113,0,21.907,2.063,29.844,4.922v-6.668
	c0-19.207-11.428-28.255-30.002-28.255c-9.842,0-18.096,2.699-26.351,6.666l-1.27-2.856c8.731-4.286,17.462-6.984,27.779-6.984
	c10.954,0,19.526,2.856,25.401,8.73c4.92,4.921,7.777,12.699,7.777,22.541v49.369h-3.334v-18.731
	c-3.334,9.206-15.238,20.637-35.557,20.637C206.429,279.023,192.3,270.928,192.3,255.214 M257.542,248.068V237.91
	c-8.412-3.176-17.619-5.08-29.684-5.08c-17.938,0-32.066,7.301-32.066,21.906v0.315c0,13.972,12.382,20.798,26.351,20.798
	C243.414,275.85,257.542,262.197,257.542,248.068"/>
<path d="M260.938,237.433v-0.318c0-23.494,16.032-41.272,38.098-41.272c25.082,0,36.51,22.065,36.51,41.907v0.637h-70.958
	c0.637,22.859,16.668,37.463,36.194,37.463c12.225,0,23.018-7.144,29.367-16.033l2.699,1.903
	c-6.828,9.843-18.254,17.304-32.227,17.304C278.875,279.023,260.938,262.99,260.938,237.433 M331.895,235.369
	c-0.635-18.096-12.064-36.35-33.02-36.35c-19.684,0-33.495,15.557-34.29,36.35H331.895z"/>
<rect x="339.59" y="161.238" width="3.334" height="115.881"/>
<path d="M348.469,242.672v-44.923h3.334v44.607c0,19.841,10.32,33.494,30.32,33.494c17.621,0,31.588-15.08,31.588-34.129v-43.972
	h3.336v79.37h-3.336v-21.748c-2.539,9.682-13.014,23.652-31.904,23.652C360.377,279.023,348.469,264.576,348.469,242.672"/>
<path d="M422.329,197.749h3.332v20.318c2.381-10.158,13.176-22.223,27.461-22.223c17.305,0,26.035,10.795,28.893,23.653
	c3.016-11.43,14.127-23.653,28.412-23.653c17.623,0,29.846,11.746,29.846,34.289v46.987h-3.336v-46.67
	c0-20.637-10.951-31.43-26.666-31.43c-13.654,0-27.307,13.65-27.307,31.748v46.352h-3.334v-46.67
	c0-20.637-10.949-31.43-26.664-31.43c-13.652,0-27.305,13.65-27.305,31.748v46.352h-3.332V197.749L422.329,197.749z"/>
<path d="M107.123,233.893c0-27.639-22.404-50.042-50.042-50.042c-11.643,0-22.347,3.986-30.849,10.654
	c35.136-1.543,47.04,7.074,44.078,34.547c-2.622,24.329,12.161,41.005,16.353,45.198
	C99.067,265.143,107.123,250.461,107.123,233.893z"/>
<path d="M59.809,218.041c0-18.255-29.299-19.218-38.559-19.066c-8.789,9.017-14.21,21.331-14.21,34.918
	c0,27.638,22.404,50.044,50.042,50.044c9.435,0,18.257-2.614,25.789-7.153C57.661,256.038,59.809,239.536,59.809,218.041z"/>
</svg>
