<?xml version="1.0" encoding="utf-8"?>
<!-- Generator: Adobe Illustrator 15.1.0, SVG Export Plug-In . SVG Version: 6.00 Build 0)  -->
<!DOCTYPE svg PUBLIC "-//W3C//DTD SVG 1.1//EN" "http://www.w3.org/Graphics/SVG/1.1/DTD/svg11.dtd">
<svg version="1.1" id="Layer_1" xmlns="http://www.w3.org/2000/svg" xmlns:xlink="http://www.w3.org/1999/xlink" x="0px" y="0px"
	 width="547.333px" height="152px" viewBox="0 0 547.333 152" enable-background="new 0 0 547.333 152" xml:space="preserve">
<path fill="#FFFFFF" d="M118.124,89.594v-0.318c0-22.541,17.62-41.432,40.638-41.432c14.605,0,23.812,6.35,31.748,14.762
	l-2.382,2.223c-7.143-7.618-16.192-13.809-29.525-13.809c-21.113,0-36.987,17.459-36.987,38.096v0.318
	c0,20.639,16.35,38.416,37.146,38.416c13.651,0,22.858-6.826,29.842-14.766l2.381,2.225c-7.461,8.729-17.46,15.715-32.382,15.715
	C135.902,131.023,118.124,112.133,118.124,89.594"/>
<path fill="#FFFFFF" d="M192.3,107.214v-0.319c0-16.666,15.556-25.238,35.398-25.238c11.113,0,21.907,2.062,29.844,4.922V79.91
	c0-19.207-11.428-28.255-30.002-28.255c-9.842,0-18.096,2.698-26.351,6.665l-1.27-2.855c8.731-4.285,17.462-6.984,27.779-6.984
	c10.954,0,19.526,2.856,25.401,8.73c4.92,4.921,7.777,12.699,7.777,22.541v49.369h-3.334v-18.73
	c-3.334,9.205-15.238,20.637-35.557,20.637C206.429,131.023,192.3,122.928,192.3,107.214 M257.542,100.068V89.91
	c-8.412-3.176-17.619-5.08-29.684-5.08c-17.938,0-32.066,7.301-32.066,21.906v0.314c0,13.973,12.382,20.799,26.351,20.799
	C243.414,127.85,257.542,114.197,257.542,100.068"/>
<path fill="#FFFFFF" d="M260.938,89.434v-0.318c0-23.494,16.032-41.272,38.098-41.272c25.082,0,36.51,22.065,36.51,41.907v0.637
	h-70.958c0.637,22.859,16.668,37.463,36.194,37.463c12.225,0,23.018-7.144,29.367-16.033l2.699,1.904
	c-6.828,9.842-18.254,17.303-32.227,17.303C278.875,131.023,260.938,114.99,260.938,89.434 M331.895,87.369
	c-0.635-18.096-12.064-36.35-33.02-36.35c-19.685,0-33.496,15.557-34.291,36.35H331.895z"/>
<rect x="339.59" y="13.238" fill="#FFFFFF" width="3.334" height="115.881"/>
<path fill="#FFFFFF" d="M348.469,94.672V49.749h3.334v44.606c0,19.842,10.32,33.494,30.32,33.494
	c17.621,0,31.588-15.08,31.588-34.129V49.749h3.336v79.37h-3.336v-21.748c-2.539,9.682-13.014,23.652-31.904,23.652
	C360.377,131.023,348.469,116.576,348.469,94.672"/>
<path fill="#FFFFFF" d="M422.329,49.749h3.332v20.317c2.381-10.157,13.176-22.223,27.461-22.223
	c17.305,0,26.035,10.795,28.893,23.653c3.018-11.431,14.127-23.653,28.412-23.653c17.623,0,29.848,11.746,29.848,34.289v46.987
	h-3.336V82.45c0-20.638-10.951-31.431-26.666-31.431c-13.654,0-27.309,13.65-27.309,31.748v46.353h-3.334V82.45
	c0-20.638-10.949-31.431-26.664-31.431c-13.65,0-27.305,13.65-27.305,31.748v46.353h-3.332V49.749L422.329,49.749z"/>
<path fill="#FFFFFF" d="M107.123,85.893c0-27.639-22.404-50.041-50.042-50.041c-11.643,0-22.347,3.985-30.849,10.653
	c35.136-1.543,47.04,7.074,44.078,34.547c-2.622,24.329,12.161,41.005,16.353,45.198C99.067,117.143,107.123,102.461,107.123,85.893
	z"/>
<path fill="#FFFFFF" d="M59.809,70.041c0-18.255-29.299-19.218-38.559-19.066C12.461,59.992,7.04,72.307,7.04,85.893
	c0,27.639,22.404,50.045,50.042,50.045c9.435,0,18.257-2.614,25.789-7.153C57.661,108.038,59.809,91.536,59.809,70.041z"/>
</svg>
