<?xml version="1.0" encoding="utf-8"?>
<!-- Generator: Adobe Illustrator 14.0.0, SVG Export Plug-In . SVG Version: 6.00 Build 43363)  -->
<!DOCTYPE svg PUBLIC "-//W3C//DTD SVG 1.1//EN" "http://www.w3.org/Graphics/SVG/1.1/DTD/svg11.dtd">
<svg version="1.1" id="Layer_1" xmlns="http://www.w3.org/2000/svg" xmlns:xlink="http://www.w3.org/1999/xlink" x="0px" y="0px"
	 width="526px" height="60px" viewBox="0 0 526 60" enable-background="new 0 0 526 60" xml:space="preserve">
<path fill="#FFFFFF" d="M14.755,45.83V16.417c4.284-0.181,7.82-0.271,10.611-0.271c3.032,0,5.325,0.21,6.878,0.633
	c3.258,0.906,5.671,2.972,7.24,6.2c1.116,2.263,1.674,4.773,1.674,7.536c0,2.728-0.581,5.225-1.743,7.487
	c-1.779,3.438-4.449,5.731-8.009,6.879c-1.991,0.633-4.63,0.949-7.919,0.949H14.755z M18.397,43.498h5.34
	c4.585,0,7.866-0.996,9.842-2.986c1.163-1.177,2.051-2.758,2.669-4.749c0.513-1.63,0.77-3.32,0.77-5.068
	c0-2.611-0.566-4.949-1.697-7.017c-1.418-2.593-3.47-4.206-6.154-4.838c-1.041-0.243-2.572-0.362-4.593-0.362
	c-0.92,0-2.979,0.058-6.177,0.18V43.498z"/>
<polygon fill="#FFFFFF" points="57.648,16.438 61.834,16.438 70.138,30.466 78.871,16.438 82.921,16.438 71.337,32.909 
	71.337,45.83 67.694,45.83 67.694,33.091 "/>
<polygon fill="#FFFFFF" points="101.401,16.438 105.043,16.438 105.043,43.16 119.842,43.16 119.842,45.83 101.401,45.83 "/>
<path fill="#FFFFFF" d="M149.161,16.438h2.895l11.334,29.393h-3.935l-3.486-9.524h-12.761l-3.958,9.524h-3.711L149.161,16.438z
	 M155.112,34.019l-5.158-13.78l-5.771,13.78H155.112z"/>
<polygon fill="#FFFFFF" points="183.773,16.438 186.488,16.438 206.534,39.788 205.901,16.438 209.113,16.438 209.068,45.67 
	207.509,46.262 186.331,21.756 187.007,45.83 183.773,45.83 "/>
<path fill="#FFFFFF" d="M282.886,31.28h3.645v13.827c-4.298,0.83-7.979,1.245-11.041,1.245c-3.981,0-7.278-0.777-9.889-2.332
	c-2.535-1.508-4.328-3.764-5.383-6.766c-0.591-1.642-0.883-3.363-0.883-5.159c0-4.024,1.229-7.512,3.689-10.451
	c3.227-3.833,8.007-5.749,14.341-5.749c2.007,0,4.164,0.221,6.474,0.657c0.935,0.181,1.479,0.354,1.63,0.519
	c0.074,0.107,0.112,0.213,0.112,0.319l0.111,2.263c0,0.165-0.038,0.292-0.111,0.383l-0.385,0.316
	c-0.061,0.045-0.114,0.067-0.159,0.067c-0.046,0-0.324-0.113-0.836-0.338c-2.55-1.147-5.19-1.719-7.921-1.719
	c-3.529,0-6.432,0.971-8.71,2.92c-1.329,1.128-2.345,2.558-3.056,4.286c-0.708,1.727-1.062,3.631-1.062,5.711
	c0,4.496,1.592,7.898,4.774,10.206c2.219,1.613,5.018,2.422,8.396,2.422c1.975,0,4.063-0.25,6.265-0.748V31.28z"/>
<polygon fill="#FFFFFF" points="310.327,16.438 329.265,16.438 329.265,18.996 313.969,18.996 313.969,28.927 327.522,28.927 
	327.522,31.51 313.969,31.51 313.969,43.16 329.379,43.16 329.379,45.83 310.327,45.83 "/>
<path fill="#FFFFFF" d="M365.213,15.647c3.393,0,6.355,0.921,8.89,2.761c2.144,1.583,3.751,3.689,4.821,6.313
	c0.77,1.901,1.152,3.905,1.152,6.016c0,4.12-1.297,7.688-3.892,10.703c-1.958,2.279-4.518,3.818-7.668,4.616
	c-1.51,0.377-2.958,0.566-4.346,0.566c-1.644,0-3.275-0.269-4.897-0.804c-1.621-0.535-3.073-1.293-4.358-2.273
	c-1.867-1.419-3.348-3.258-4.434-5.521c-1.038-2.159-1.56-4.384-1.56-6.675c0-1.827,0.333-3.64,0.995-5.441
	c0.664-1.802,1.592-3.42,2.785-4.855c1.975-2.337,4.537-3.941,7.691-4.818C361.842,15.844,363.448,15.647,365.213,15.647
	 M364.353,18.338c-2.595,0-4.85,0.732-6.764,2.196c-1.268,0.966-2.279,2.188-3.035,3.666c-1.009,1.974-1.514,4.088-1.514,6.334
	c0,2.625,0.658,5.089,1.967,7.4c1.328,2.354,3.176,4.041,5.546,5.068c1.431,0.618,2.903,0.926,4.409,0.926
	c2.431,0,4.578-0.739,6.45-2.217c1.312-1.04,2.377-2.418,3.191-4.139c0.905-1.899,1.357-3.891,1.357-5.973
	c0-1.871-0.352-3.726-1.054-5.568c-0.7-1.839-1.647-3.391-2.838-4.658C370.169,19.35,367.594,18.338,364.353,18.338"/>
<path fill="#FFFFFF" d="M403.357,16.438l1.493-0.021l2.829-0.045c1.991-0.045,3.18-0.066,3.571-0.066
	c1.962,0,3.463,0.074,4.505,0.224c2.505,0.332,4.29,1.307,5.36,2.919c0.953,1.432,1.427,3.023,1.427,4.772
	c0,2.129-0.671,3.916-2.013,5.364c-0.966,1.042-2.368,1.946-4.21,2.715c1.027,1.855,2.22,3.734,3.577,5.635
	c1.358,1.901,2.518,3.333,3.481,4.297c1.177,1.163,2.521,1.857,4.03,2.081l-0.452,1.406c-0.062,0.224-0.311,0.338-0.748,0.338
	c-1.33,0-2.436-0.144-3.325-0.429c-1.405-0.452-2.776-1.509-4.12-3.167c-1.763-2.172-3.814-5.28-6.155-9.322
	c-1.054,0.133-2.32,0.203-3.8,0.203c-0.586,0-1.189-0.008-1.811-0.021v12.511h-3.641V16.438z M406.998,30.875
	c1.192,0.091,2.258,0.133,3.191,0.133c3.106,0,5.315-0.58,6.63-1.741c1.178-1.041,1.763-2.587,1.763-4.637
	c0-2.583-0.881-4.302-2.646-5.158c-1.024-0.501-2.617-0.749-4.775-0.749c-1.401,0-2.789,0.045-4.163,0.136V30.875z"/>
<path fill="#FFFFFF" d="M468.263,31.28h3.646v13.827c-4.301,0.83-7.982,1.245-11.043,1.245c-3.982,0-7.277-0.777-9.888-2.332
	c-2.535-1.508-4.328-3.764-5.384-6.766c-0.59-1.642-0.884-3.363-0.884-5.159c0-4.024,1.23-7.512,3.69-10.451
	c3.227-3.833,8.006-5.749,14.342-5.749c2.007,0,4.163,0.221,6.474,0.657c0.935,0.181,1.478,0.354,1.63,0.519
	c0.074,0.107,0.111,0.213,0.111,0.319l0.112,2.263c0,0.165-0.038,0.292-0.112,0.383l-0.384,0.316
	c-0.062,0.045-0.114,0.067-0.159,0.067s-0.324-0.113-0.836-0.338c-2.55-1.147-5.19-1.719-7.921-1.719
	c-3.529,0-6.432,0.971-8.71,2.92c-1.329,1.128-2.346,2.558-3.057,4.286c-0.707,1.727-1.062,3.631-1.062,5.711
	c0,4.496,1.591,7.898,4.773,10.206c2.219,1.613,5.018,2.422,8.396,2.422c1.974,0,4.063-0.25,6.265-0.748V31.28z"/>
<polygon fill="#FFFFFF" points="495.705,16.438 514.641,16.438 514.641,18.996 499.345,18.996 499.345,28.927 512.9,28.927 
	512.9,31.51 499.345,31.51 499.345,43.16 514.755,43.16 514.755,45.83 495.705,45.83 "/>
</svg>
