<?xml version="1.0" encoding="utf-8"?>
<!-- Generator: Adobe Illustrator 14.0.0, SVG Export Plug-In . SVG Version: 6.00 Build 43363)  -->
<!DOCTYPE svg PUBLIC "-//W3C//DTD SVG 1.1//EN" "http://www.w3.org/Graphics/SVG/1.1/DTD/svg11.dtd">
<svg version="1.1" id="Layer_1" xmlns="http://www.w3.org/2000/svg" xmlns:xlink="http://www.w3.org/1999/xlink" x="0px" y="0px"
	 width="792px" height="612px" viewBox="0 0 792 612" enable-background="new 0 0 792 612" xml:space="preserve">
<path fill="#FFFFFF" d="M337.97,242.448c0,2.789-0.97,5.153-2.906,7.089c-2.016,2.016-4.416,3.022-7.205,3.022h-6.857
	c-2.713,0-5.076-1.006-7.09-3.022c-2.015-2.014-3.021-4.376-3.021-7.089v-61.015c0-2.789,1.006-5.19,3.021-7.206
	c2.014-2.014,4.377-3.021,7.09-3.021h6.857c2.789,0,5.189,1.007,7.205,3.021c1.936,1.938,2.906,4.34,2.906,7.206V242.448z
	 M319.607,179.921c-1.318,1.473-1.976,3.1-1.976,4.881v54.158c0,1.783,0.658,3.41,1.976,4.881c1.471,1.319,3.098,1.976,4.881,1.976
	c1.86,0,3.447-0.657,4.765-1.976c1.317-1.471,1.976-3.098,1.976-4.881v-54.158c0-1.781-0.659-3.408-1.976-4.881
	c-1.318-1.317-2.905-1.976-4.765-1.976C322.705,177.946,321.078,178.604,319.607,179.921"/>
<polygon fill="#FFFFFF" points="394.615,171.551 404.494,231.985 404.494,171.551 411.233,171.551 411.233,252.904 400.774,252.904 
	390.896,192.354 390.896,252.904 384.155,252.904 384.155,171.551 "/>
<polygon fill="#FFFFFF" points="481.505,177.946 461.167,177.946 461.167,208.512 481.505,208.512 481.505,215.252 461.167,215.252 
	461.167,245.818 481.505,245.818 481.505,252.559 454.426,252.559 454.426,171.205 481.505,171.205 "/>
<polygon fill="#FFFFFF" points="402.519,274.174 408.679,331.818 414.722,274.174 422.16,274.174 428.32,331.818 434.363,274.174 
	441.801,274.174 431.69,355.526 424.949,355.526 418.441,304.042 412.049,355.526 405.192,355.526 395.081,274.174 "/>
<path fill="#FFFFFF" d="M481.313,344.379c0,2.79-0.97,5.153-2.905,7.09c-2.016,2.016-4.417,3.021-7.206,3.021h-16.968v-81.353
	h16.968c2.789,0,5.19,1.008,7.206,3.022c1.936,1.937,2.905,4.34,2.905,7.206V344.379z M460.976,279.878v67.872h6.856
	c1.859,0,3.446-0.658,4.766-1.977c1.315-1.471,1.976-3.098,1.976-4.881v-54.158c0-1.782-0.66-3.409-1.976-4.881
	c-1.319-1.317-2.906-1.976-4.766-1.976H460.976z"/>
<path fill="#FFFFFF" d="M338.085,309.853c0,1.395-0.464,2.557-1.394,3.487c-0.156,0.155-0.273,0.252-0.349,0.29
	c-0.078,0.039-0.156,0.137-0.232,0.29c-1.008,0.621-1.976,0.931-2.906,0.931c1.084,0,2.052,0.31,2.906,0.929l0.581,0.582
	c0.93,0.929,1.394,2.092,1.394,3.486v25.567c0,2.789-0.969,5.154-2.905,7.09c-2.016,2.016-4.416,3.021-7.206,3.021h-16.968v-81.353
	h16.968c2.79,0,5.19,1.008,7.206,3.022c1.936,1.937,2.905,4.34,2.905,7.205V309.853z M317.748,280.915v30.565h6.857
	c1.86,0,3.447-0.657,4.765-1.975c1.317-1.472,1.976-3.061,1.976-4.766v-16.968c0-1.782-0.659-3.409-1.976-4.881
	c-1.318-1.317-2.905-1.976-4.765-1.976H317.748z M324.604,318.221h-6.857v30.565h6.857c1.86,0,3.447-0.657,4.765-1.976
	c1.317-1.471,1.976-3.098,1.976-4.881v-16.853c0-1.78-0.659-3.409-1.976-4.881C328.051,318.88,326.464,318.221,324.604,318.221"/>
<polygon fill="#FFFFFF" points="361.643,274.173 368.151,300.322 374.542,274.173 381.633,274.173 371.638,314.851 381.633,355.526 
	374.542,355.526 368.151,329.377 361.643,355.526 354.554,355.526 364.548,314.851 354.554,274.173 "/>
<rect x="321.651" y="174.452" transform="matrix(0.9501 0.3121 -0.3121 0.9501 81.0706 -90.5803)" fill="#FFFFFF" width="3.801" height="67.122"/>
<polygon fill="#FFFFFF" points="311.037,368.388 312.416,368.388 312.416,374.984 316.545,374.984 316.545,376.239 311.037,376.239 
	"/>
<path fill="#FFFFFF" d="M326.16,372.336v-0.022c0-2.21,1.705-4.06,4.116-4.06c2.414,0,4.095,1.827,4.095,4.037v0.022
	c0,2.21-1.706,4.06-4.117,4.06S326.16,374.546,326.16,372.336 M332.925,372.336v-0.022c0-1.527-1.112-2.793-2.671-2.793
	c-1.558,0-2.646,1.244-2.646,2.771v0.022c0,1.526,1.11,2.781,2.668,2.781C331.837,375.095,332.925,373.862,332.925,372.336"/>
<path fill="#FFFFFF" d="M344.436,375.095l0.831-0.987c0.749,0.651,1.514,1.021,2.477,1.021c0.853,0,1.392-0.404,1.392-0.987v-0.022
	c0-0.561-0.314-0.864-1.772-1.2c-1.671-0.404-2.614-0.897-2.614-2.346v-0.021c0-1.346,1.122-2.276,2.68-2.276
	c1.144,0,2.054,0.348,2.85,0.987l-0.74,1.042c-0.708-0.527-1.414-0.807-2.132-0.807c-0.808,0-1.279,0.414-1.279,0.932v0.021
	c0,0.605,0.36,0.875,1.875,1.235c1.658,0.402,2.511,0.997,2.511,2.298v0.022c0,1.47-1.154,2.345-2.803,2.345
	C346.511,376.352,345.377,375.938,344.436,375.095"/>
<path fill="#FFFFFF" d="M376.238,368.332h1.279l3.455,7.907h-1.458l-0.796-1.895h-3.712l-0.809,1.895h-1.414L376.238,368.332z
	 M378.213,373.122l-1.357-3.141l-1.346,3.141H378.213z"/>
<polygon fill="#FFFFFF" points="391.295,368.388 392.574,368.388 396.78,373.815 396.78,368.388 398.139,368.388 398.139,376.239 
	396.981,376.239 392.652,370.652 392.652,376.239 391.295,376.239 "/>
<path fill="#FFFFFF" d="M408.784,372.336v-0.022c0-2.198,1.684-4.06,4.051-4.06c1.367,0,2.21,0.38,3.017,1.065l-0.875,1.041
	c-0.605-0.514-1.201-0.84-2.198-0.84c-1.447,0-2.546,1.266-2.546,2.771v0.022c0,1.615,1.066,2.803,2.668,2.803
	c0.74,0,1.414-0.234,1.897-0.593v-1.47h-2.007v-1.201h3.342v3.298c-0.774,0.662-1.884,1.223-3.276,1.223
	C410.399,376.373,408.784,374.624,408.784,372.336"/>
<polygon fill="#FFFFFF" points="426.904,368.388 432.727,368.388 432.727,369.62 428.283,369.62 428.283,371.662 432.221,371.662 
	432.221,372.896 428.283,372.896 428.283,375.006 432.782,375.006 432.782,376.239 426.904,376.239 "/>
<polygon fill="#FFFFFF" points="443.395,368.388 444.774,368.388 444.774,374.984 448.902,374.984 448.902,376.239 443.395,376.239 
	"/>
<polygon fill="#FFFFFF" points="459.313,368.388 465.136,368.388 465.136,369.62 460.692,369.62 460.692,371.662 464.631,371.662 
	464.631,372.896 460.692,372.896 460.692,375.006 465.191,375.006 465.191,376.239 459.313,376.239 "/>
<path fill="#FFFFFF" d="M475.279,375.095l0.831-0.987c0.749,0.651,1.514,1.021,2.478,1.021c0.853,0,1.392-0.404,1.392-0.987v-0.022
	c0-0.561-0.314-0.864-1.772-1.2c-1.671-0.404-2.613-0.897-2.613-2.346v-0.021c0-1.346,1.122-2.276,2.68-2.276
	c1.145,0,2.054,0.348,2.85,0.987l-0.739,1.042c-0.708-0.527-1.414-0.807-2.132-0.807c-0.809,0-1.279,0.414-1.279,0.932v0.021
	c0,0.605,0.359,0.875,1.875,1.235c1.658,0.402,2.511,0.997,2.511,2.298v0.022c0,1.47-1.154,2.345-2.803,2.345
	C477.354,376.352,476.221,375.938,475.279,375.095"/>
<rect x="363.937" y="399.53" fill="#FFFFFF" width="17.833" height="41.523"/>
<rect x="387.275" y="399.314" fill="#FFFFFF" width="41.183" height="41.523"/>
</svg>
