<?xml version="1.0" encoding="utf-8"?>
<!-- Generator: Adobe Illustrator 15.1.0, SVG Export Plug-In . SVG Version: 6.00 Build 0)  -->
<!DOCTYPE svg PUBLIC "-//W3C//DTD SVG 1.1//EN" "http://www.w3.org/Graphics/SVG/1.1/DTD/svg11.dtd">
<svg version="1.1" id="Layer_1" xmlns="http://www.w3.org/2000/svg" xmlns:xlink="http://www.w3.org/1999/xlink" x="0px" y="0px"
	 width="219px" height="301px" viewBox="0 0 219 301" enable-background="new 0 0 219 301" xml:space="preserve">
<path fill="#FFFFFF" d="M49.97,83.448c0,2.788-0.97,5.153-2.904,7.089c-2.018,2.016-4.416,3.021-7.205,3.021h-6.857
	c-2.713,0-5.076-1.006-7.09-3.021c-2.015-2.014-3.021-4.376-3.021-7.089V22.434c0-2.789,1.008-5.19,3.021-7.207
	c2.014-2.014,4.377-3.021,7.09-3.021h6.857c2.789,0,5.188,1.007,7.205,3.021c1.936,1.938,2.904,4.34,2.904,7.207V83.448z
	 M31.607,20.921c-1.318,1.474-1.978,3.101-1.978,4.881V79.96c0,1.783,0.658,3.41,1.978,4.881c1.471,1.319,3.098,1.976,4.881,1.976
	c1.858,0,3.445-0.656,4.765-1.976c1.317-1.471,1.978-3.098,1.978-4.881V25.802c0-1.78-0.659-3.407-1.978-4.881
	c-1.318-1.317-2.905-1.976-4.765-1.976C34.705,18.945,33.078,19.604,31.607,20.921"/>
<polygon fill="#FFFFFF" points="106.615,12.551 116.494,72.984 116.494,12.551 123.233,12.551 123.233,93.904 112.774,93.904 
	102.896,33.354 102.896,93.904 96.155,93.904 96.155,12.551 "/>
<polygon fill="#FFFFFF" points="193.505,18.945 173.167,18.945 173.167,49.512 193.505,49.512 193.505,56.252 173.167,56.252 
	173.167,86.818 193.505,86.818 193.505,93.559 166.426,93.559 166.426,12.205 193.505,12.205 "/>
<polygon fill="#FFFFFF" points="114.519,115.174 120.679,172.818 126.722,115.174 134.16,115.174 140.32,172.818 146.363,115.174 
	153.801,115.174 143.69,196.525 136.949,196.525 130.441,145.042 124.049,196.525 117.192,196.525 107.081,115.174 "/>
<path fill="#FFFFFF" d="M193.312,185.379c0,2.79-0.971,5.153-2.904,7.09c-2.018,2.016-4.417,3.021-7.206,3.021h-16.968v-81.354
	h16.968c2.789,0,5.188,1.009,7.206,3.022c1.936,1.937,2.904,4.34,2.904,7.205V185.379z M172.976,120.878v67.872h6.856
	c1.859,0,3.446-0.658,4.766-1.977c1.315-1.473,1.978-3.1,1.978-4.881v-54.16c0-1.781-0.66-3.408-1.978-4.881
	c-1.317-1.316-2.904-1.976-4.766-1.976L172.976,120.878L172.976,120.878z"/>
<path fill="#FFFFFF" d="M50.085,150.854c0,1.396-0.464,2.558-1.394,3.486c-0.156,0.155-0.273,0.252-0.351,0.29
	c-0.078,0.039-0.156,0.138-0.23,0.29c-1.01,0.621-1.978,0.932-2.906,0.932c1.084,0,2.052,0.311,2.906,0.929l0.581,0.581
	c0.93,0.931,1.394,2.094,1.394,3.486v25.567c0,2.789-0.969,5.153-2.905,7.09c-2.016,2.017-4.416,3.021-7.206,3.021H23.006v-81.353
	h16.968c2.79,0,5.19,1.009,7.206,3.022c1.938,1.937,2.905,4.34,2.905,7.205V150.854z M29.748,121.915v30.565h6.857
	c1.858,0,3.445-0.657,4.765-1.977c1.315-1.472,1.976-3.061,1.976-4.766V128.77c0-1.781-0.657-3.408-1.976-4.881
	c-1.318-1.316-2.905-1.976-4.765-1.976L29.748,121.915L29.748,121.915z M36.604,159.221h-6.855v30.565h6.855
	c1.86,0,3.447-0.657,4.767-1.976c1.315-1.473,1.976-3.1,1.976-4.881v-16.854c0-1.78-0.658-3.409-1.976-4.882
	C40.051,159.88,38.464,159.221,36.604,159.221"/>
<polygon fill="#FFFFFF" points="73.643,115.173 80.151,141.322 86.542,115.173 93.633,115.173 83.638,155.852 93.633,196.525 
	86.542,196.525 80.151,170.377 73.643,196.525 66.554,196.525 76.548,155.852 66.554,115.173 "/>
<rect x="33.659" y="15.493" transform="matrix(0.95 0.3122 -0.3122 0.95 17.0929 -8.65)" fill="#FFFFFF" width="3.8" height="67.122"/>
<polygon fill="#FFFFFF" points="23.037,209.389 24.416,209.389 24.416,215.984 28.545,215.984 28.545,217.239 23.037,217.239 "/>
<path fill="#FFFFFF" d="M38.16,213.336v-0.021c0-2.211,1.705-4.061,4.116-4.061c2.414,0,4.095,1.827,4.095,4.037v0.021
	c0,2.211-1.706,4.061-4.117,4.061S38.16,215.546,38.16,213.336 M44.925,213.336v-0.021c0-1.526-1.112-2.793-2.671-2.793
	c-1.558,0-2.646,1.244-2.646,2.771v0.021c0,1.525,1.108,2.781,2.668,2.781C43.837,216.096,44.925,214.861,44.925,213.336"/>
<path fill="#FFFFFF" d="M56.436,216.096l0.831-0.988c0.749,0.651,1.516,1.021,2.479,1.021c0.853,0,1.392-0.404,1.392-0.986v-0.021
	c0-0.562-0.312-0.864-1.771-1.2c-1.671-0.403-2.614-0.896-2.614-2.346v-0.021c0-1.347,1.122-2.275,2.68-2.275
	c1.146,0,2.056,0.348,2.852,0.986l-0.74,1.043c-0.708-0.527-1.414-0.809-2.132-0.809c-0.81,0-1.279,0.414-1.279,0.934v0.021
	c0,0.604,0.36,0.875,1.875,1.235c1.658,0.4,2.511,0.996,2.511,2.297v0.021c0,1.471-1.152,2.346-2.803,2.346
	C58.511,217.352,57.377,216.938,56.436,216.096"/>
<path fill="#FFFFFF" d="M88.238,209.332h1.277l3.455,7.907h-1.458l-0.796-1.896h-3.712l-0.809,1.896h-1.414L88.238,209.332z
	 M90.213,214.122l-1.355-3.142l-1.348,3.142H90.213z"/>
<polygon fill="#FFFFFF" points="103.295,209.389 104.574,209.389 108.78,214.814 108.78,209.389 110.139,209.389 110.139,217.239 
	108.981,217.239 104.652,211.652 104.652,217.239 103.295,217.239 "/>
<path fill="#FFFFFF" d="M120.784,213.336v-0.021c0-2.197,1.684-4.061,4.051-4.061c1.367,0,2.21,0.38,3.017,1.064l-0.875,1.041
	c-0.604-0.515-1.199-0.84-2.196-0.84c-1.447,0-2.546,1.267-2.546,2.771v0.021c0,1.615,1.064,2.805,2.668,2.805
	c0.738,0,1.414-0.234,1.896-0.594v-1.471h-2.007v-1.201h3.342v3.299c-0.772,0.662-1.884,1.224-3.274,1.224
	C122.399,217.373,120.784,215.624,120.784,213.336"/>
<polygon fill="#FFFFFF" points="138.904,209.389 144.727,209.389 144.727,210.62 140.283,210.62 140.283,212.662 144.221,212.662 
	144.221,213.896 140.283,213.896 140.283,216.006 144.782,216.006 144.782,217.239 138.904,217.239 "/>
<polygon fill="#FFFFFF" points="155.395,209.389 156.774,209.389 156.774,215.984 160.902,215.984 160.902,217.239 155.395,217.239 
	"/>
<polygon fill="#FFFFFF" points="171.312,209.389 177.136,209.389 177.136,210.62 172.692,210.62 172.692,212.662 176.631,212.662 
	176.631,213.896 172.692,213.896 172.692,216.006 177.191,216.006 177.191,217.239 171.312,217.239 "/>
<path fill="#FFFFFF" d="M187.279,216.096l0.831-0.988c0.749,0.651,1.514,1.021,2.478,1.021c0.854,0,1.394-0.404,1.394-0.986v-0.021
	c0-0.562-0.314-0.864-1.772-1.2c-1.671-0.403-2.613-0.896-2.613-2.346v-0.021c0-1.347,1.122-2.275,2.682-2.275
	c1.145,0,2.054,0.348,2.85,0.986l-0.739,1.043c-0.708-0.527-1.414-0.809-2.132-0.809c-0.809,0-1.279,0.414-1.279,0.934v0.021
	c0,0.604,0.359,0.875,1.875,1.235c1.658,0.4,2.513,0.996,2.513,2.297v0.021c0,1.471-1.154,2.346-2.805,2.346
	C189.354,217.352,188.221,216.938,187.279,216.096"/>
<rect x="75.938" y="240.53" fill="#FFFFFF" width="17.832" height="41.521"/>
<rect x="99.275" y="240.314" fill="#FFFFFF" width="41.183" height="41.521"/>
</svg>
