<?xml version="1.0" encoding="utf-8"?>
<!-- Generator: Adobe Illustrator 14.0.0, SVG Export Plug-In . SVG Version: 6.00 Build 43363)  -->
<!DOCTYPE svg PUBLIC "-//W3C//DTD SVG 1.1//EN" "http://www.w3.org/Graphics/SVG/1.1/DTD/svg11.dtd">
<svg version="1.1" id="Layer_1" xmlns="http://www.w3.org/2000/svg" xmlns:xlink="http://www.w3.org/1999/xlink" x="0px" y="0px"
	 width="562px" height="257px" viewBox="0 0 562 257" enable-background="new 0 0 562 257" xml:space="preserve">
<path d="M413.844,21.244l10.564,98.86l10.363-98.86h12.756l10.564,98.86l10.364-98.86h12.756l-17.34,139.52h-11.56l-11.163-88.296
	l-10.962,88.296h-11.76l-17.34-139.52H413.844z M548.976,141.646c0,4.783-1.663,8.838-4.981,12.158
	c-3.457,3.457-7.574,5.182-12.357,5.182h-29.1V19.466h29.1c4.783,0,8.9,1.728,12.357,5.182c3.318,3.323,4.981,7.443,4.981,12.357
	V141.646z M514.096,31.026v116.399h11.761c3.188,0,5.909-1.127,8.172-3.388c2.258-2.521,3.389-5.312,3.389-8.371v-92.88
	c0-3.056-1.131-5.846-3.389-8.372c-2.263-2.258-4.983-3.388-8.172-3.388H514.096z M303.342,82.433c0,2.392-0.798,4.385-2.392,5.98
	c-0.269,0.268-0.47,0.433-0.599,0.498c-0.135,0.069-0.269,0.234-0.398,0.499c-1.729,1.065-3.389,1.594-4.982,1.594
	c1.859,0,3.52,0.533,4.982,1.594l0.997,0.997c1.594,1.595,2.392,3.588,2.392,5.98v43.849c0,4.783-1.664,8.838-4.982,12.158
	c-3.457,3.457-7.573,5.182-12.357,5.182h-29.1V21.244h29.1c4.784,0,8.9,1.728,12.357,5.182c3.318,3.323,4.982,7.443,4.982,12.357
	V82.433z M268.462,32.804v52.42h11.759c3.189,0,5.911-1.128,8.171-3.388c2.258-2.523,3.389-5.248,3.389-8.172v-29.1
	c0-3.055-1.131-5.846-3.389-8.371c-2.261-2.258-4.982-3.389-8.171-3.389H268.462z M280.221,96.784h-11.759v52.42h11.759
	c3.189,0,5.911-1.128,8.171-3.39c2.258-2.521,3.389-5.312,3.389-8.371v-28.899c0-3.055-1.131-5.846-3.389-8.372
	C286.132,97.914,283.41,96.784,280.221,96.784 M343.741,21.244l11.161,44.846l10.963-44.846h12.158l-17.142,69.759l17.142,69.761
	h-12.158l-10.963-44.847l-11.161,44.847h-12.158l17.142-69.761l-17.142-69.759H343.741z M111.065,21.244l16.942,103.643V21.244
	h11.56v139.52h-17.938L104.687,56.921v103.843h-11.56V21.244H111.065z M212.206,32.211h-34.881v52.42h34.881v11.56h-34.881v52.42
	h34.881v11.56h-46.441V20.651h46.441V32.211z M57.388,25.834c-3.457-3.454-7.574-5.182-12.358-5.182H33.271
	c-4.653,0-8.705,1.728-12.158,5.182c-3.457,3.457-5.183,7.574-5.183,12.357v104.64c0,4.653,1.726,8.705,5.183,12.158
	c3.453,3.456,7.505,5.183,12.158,5.183H45.03c4.784,0,8.901-1.727,12.358-5.183c3.319-3.319,4.983-7.374,4.983-12.158V38.191
	C62.371,33.277,60.707,29.157,57.388,25.834 M30.879,35.6c2.523-2.258,5.313-3.388,8.371-3.388c3.189,0,5.911,1.13,8.172,3.388
	c0.719,0.804,1.31,1.637,1.8,2.495l-21.731,66.142V43.971C27.491,40.916,28.618,38.126,30.879,35.6 M47.422,145.223
	c-2.261,2.262-4.983,3.389-8.172,3.389c-3.058,0-5.848-1.127-8.371-3.389c-2.261-2.522-3.388-5.312-3.388-8.371V125.12L50.81,54.143
	v82.708C50.81,139.91,49.68,142.7,47.422,145.223 M230.069,179.119h32.122v65h-32.122V179.119z M267.282,179.119h64.466v65h-64.466
	V179.119z"/>
</svg>
