<?xml version="1.0" encoding="utf-8"?>
<!-- Generator: Adobe Illustrator 15.1.0, SVG Export Plug-In . SVG Version: 6.00 Build 0)  -->
<!DOCTYPE svg PUBLIC "-//W3C//DTD SVG 1.1//EN" "http://www.w3.org/Graphics/SVG/1.1/DTD/svg11.dtd">
<svg version="1.1" id="Layer_1" xmlns="http://www.w3.org/2000/svg" xmlns:xlink="http://www.w3.org/1999/xlink" x="0px" y="0px"
	 width="547px" height="473px" viewBox="0 0 547 473" enable-background="new 0 0 547 473" xml:space="preserve">
<path fill="#F2F2F2" d="M22.083,248.798c5.178,0,7.645-1.535,8.821-6.59c1.886-8.004,2.002-24.707,2.002-32.946
	c0-8.24-0.116-24.945-2.002-32.941c-1.176-5.066-3.643-6.592-8.821-6.592v-2.351h33.532c14.822,0,29.888,4.701,29.888,21.886
	c0,19.875-16.945,26.942-36.595,26.942c-2.588,0-4.705-0.123-6.825-0.36v19.414c0,11.067,2.827,13.538,14.002,13.538v2.354H22.083
	V248.798z M49.85,171.489c-3.059,0-4.588,0.238-7.293,0.59c-0.234,4.002-0.473,7.765-0.473,16.59v22.478
	c1.649,0.469,3.526,0.94,8.828,0.94c19.293,0,23.295-12.475,23.295-20.594C74.207,171.489,53.732,171.489,49.85,171.489"/>
<path fill="#F2F2F2" d="M179.042,251.151h-32.827v-2.354c3.178-0.238,7.176-0.7,7.176-4.705c0-1.764-1.058-8.236-4.236-16.594
	l-2.233-5.881c-5.298-0.469-11.767-0.594-17.531-0.594c-5.06,0-10.236,0.356-15.295,0.594l-3.65,10
	c-1.649,4.586-2.588,8.473-2.588,10.711c0,5.769,8.236,6.469,12,6.469v2.354H90.443v-2.354c6.119-1.059,7.994-2.113,11.764-11.293
	l24.945-61.071c-1.297-2.707-2.822-5.644-4.707-8c6.473-0.468,10-2.945,10.828-3.767h1.998c0.355,0.943,0.703,1.998,1.057,2.941
	c8.119,20.592,17.882,46.127,26.826,68.006c4.943,12.244,7.178,12.602,15.887,13.184V251.151z M115.855,216.911
	c4.117,0.467,10.592,0.59,14.236,0.59c4.709,0,12.594-0.36,15.186-0.59c-4.949-11.295-8.832-23.18-14.713-34.121
	C125.036,193.845,120.798,205.501,115.855,216.911"/>
<path fill="#F2F2F2" d="M237.283,189.265h-2.357c0-6.713-1.528-19.184-17.53-19.184c-12.004,0-17.412,8.121-17.412,15.768
	c0,12.709,11.885,15.65,21.885,18.937c11.879,3.77,21.766,7.182,21.766,21.188c0,19.416-16.711,26.59-33.534,26.59
	c-3.648,0-12.468-0.705-23.177-4.242l4.82-23.525h2.353c0,17.652,7.77,23.648,19.649,23.648c15.654,0,20.002-12.588,20.002-19.41
	c0-8.833-3.526-11.534-19.641-17.184c-18.01-6.234-24.01-9.881-24.01-22.356c0-13.646,12.594-23.533,29.887-23.533
	c10.356,0,17.299,2.235,22.004,3.883L237.283,189.265z"/>
<path fill="#F2F2F2" d="M281.992,235.259c0,11.068,2.82,13.539,12.826,13.539v2.354h-32.83v-2.354c5.174,0,7.649-1.535,8.826-6.59
	c1.885-8.004,1.998-24.707,1.998-32.945c0-8.24-0.113-24.945-1.998-32.942c-1.177-5.066-3.652-6.591-8.826-6.591v-2.352h32.83v2.352
	c-10.006,0-12.826,2.472-12.826,13.531V235.259z"/>
<path fill="#F2F2F2" d="M353.289,165.962c25.651,0,43.77,17.058,43.77,41.301c0,27.179-19.414,45.3-46.359,45.3
	c-25.885,0-42.357-17.658-42.357-43.181C308.342,183.729,327.406,165.962,353.289,165.962 M349.879,170.081
	c-20.123,0-30.244,16.941-30.244,35.301c0,21.763,11.771,43.062,35.889,43.062c21.178,0,30.24-17.539,30.24-36.476
	C385.764,189.962,373.053,170.081,349.879,170.081"/>
<path fill="#F2F2F2" d="M413.178,167.378h25.064c-1.064,1.289-2.003,1.756-2.003,3.766c0,1.644,0.466,2.584,5.056,8.23
	c13.301,16.834,35.064,37.19,50.125,52.826v-31.177c0-6.116,0-22.594-1.527-26.94c-1.178-3.412-5.062-3.885-8.238-4.353v-2.352
	h27.418v2.352c-7.531,0.228-12.24,2.121-12.828,9.884c-0.705,9.293-0.705,18.825-0.705,28.237c0,14.707,0.115,29.654,0.475,44.712
	h-1.891c-0.584-0.828-0.938-1.643-1.879-2.48c-13.883-19.178-44.828-50.236-63.182-68.24c-0.469,9.416-0.354,27.539-0.354,35.068
	c0,29.533,0.354,31.188,14.002,31.887v2.354h-29.533v-2.354c5.176-0.699,7.646-1.535,9.408-6.59
	c1.883-8.004,2.006-24.707,2.006-32.945c0-8.24-0.123-24.946-2.006-32.942c-1.176-5.066-4.232-6.24-9.408-6.591V167.378z"/>
<path fill="#F2F2F2" d="M271.104,271.255h14.326c9.553,0,16.219,3.744,16.219,14.117c0,10.09-7.734,15.193-17.201,15.193h-13.344
	v-0.822c1.814,0,2.678-0.535,3.09-2.307c0.66-2.797,0.701-8.647,0.701-11.524c0-2.884-0.041-8.728-0.701-11.53
	c-0.412-1.77-1.276-2.301-3.09-2.301V271.255z M278.104,293.976c0,1.527,0.086,3.139,0.17,4.568
	c1.273,0.332,3.582,0.584,6.006,0.584c7.945,0,13.418-4.693,13.418-12.807c0-9.758-5.93-13.629-14.975-13.629
	c-1.492,0-3.465,0.051-4.449,0.205c-0.084,1.607-0.17,3.219-0.17,4.734V293.976z"/>
<path fill="#F2F2F2" d="M307.924,271.255h22.479l-0.949,6.629h-0.949c-0.16-2.139-0.58-5.191-7.285-5.191
	c-2.18,0-4.158,0.051-6.131,0.205c-0.088,0.992-0.168,1.936-0.168,2.883v8.734c1.809,0.244,3.625,0.402,5.438,0.402
	c3.086,0,5.805-0.443,6.621-3.824h0.826l-1.236,9.1h-0.822c0-3.99-3.207-4.039-6.377-4.039c-1.484,0-2.971,0.129-4.449,0.254v9.504
	c0,0.949,0.08,1.896,0.168,2.885c1.768,0.252,3.498,0.332,5.27,0.332c4.318,0,7.904-0.039,9.836-4.285l0.617-1.357h0.992
	l-1.443,7.081h-22.436v-0.823c1.812,0,2.67-0.535,3.09-2.307c0.656-2.797,0.693-8.648,0.693-11.523
	c0-2.885-0.037-8.729-0.693-11.531c-0.42-1.77-1.278-2.301-3.09-2.301V271.255z"/>
<path fill="#F2F2F2" d="M369.938,294.843c1.191-2.307,2.383-4.533,3.58-6.787c2.918-5.518,3.289-6.264,4.652-8.938
	c0.943-1.848,2.092-4.367,2.092-5.928c0-0.859-0.324-1.281-0.9-1.936h10.004v0.826c-4.322,0.166-4.24,1.648-4.24,4.482
	c0,5.887,0.041,16.884,0.496,20.297c0.285,2.143,1.029,2.549,4.404,2.883v0.822h-11.408v-0.822c3.299-0.117,3.547-0.74,3.547-10.789
	c0-4.318-0.248-8.6-0.373-12.838h-0.084c-0.324,1.068-3.127,6.086-6.008,11.357c-2.881,5.318-5.848,10.99-6.385,13.59h-0.697
	c-2.016-6.139-8.562-19.352-12.148-24.947h-0.078c-0.166,3.906-0.578,13.822-0.578,17.617c0,5.395,0.742,5.762,4.734,6.01v0.822
	h-10.17v-0.822c3.045-0.412,3.133-1.607,3.543-5.479c0.25-2.307,0.824-10.697,0.824-15.432c0-3.949,0-6.386-3.625-6.752v-0.826
	h9.057c-0.291,0.246-0.781,0.654-0.781,1.488c0,1.068,0.736,2.545,1.979,4.973L369.938,294.843z"/>
<path fill="#F2F2F2" d="M394.441,271.255h11.361v0.826c-2.549,0.285-4.365,0.406-4.365,4.651v12.267
	c0,6.627,3.211,10.166,9.266,10.166c7.982,0,10.049-6.662,10.049-13.295v-5.48c0-6.457,0-8.191-3.463-8.309v-0.826h9.592v0.826
	c-4.484,0.117-4.484,3.535-4.484,8.02v6.262c0,9.176-2.799,14.701-12.723,14.701c-8.236,0-11.691-3.336-11.691-10.829v-10.538
	c0-5.352,0-7.615-3.541-7.615V271.255z"/>
<path fill="#F2F2F2" d="M430.594,271.255h11.488v0.826c-2.759,0-4.238,0.867-4.238,4.735v18.188c0,3.998-0.043,6.309-0.99,7.627
	c-1.65,2.295-6.055,5.467-8.393,5.467c-0.949,0-2.225-0.951-2.225-2.971c0-0.447,0-0.857,0.205-1.184
	c0.371-0.617,2.059-1.312,2.752-1.312c0.498,0,0.498,0.406,0.498,0.695c0,0.943,0,2.012,1.27,2.012c1.979,0,3.055-2.26,3.301-4.195
	c0.246-1.898,0.367-7.951,0.367-15.23c0-2.885-0.043-8.729-0.697-11.531c-0.414-1.77-1.281-2.301-3.338-2.301V271.255z"/>
<path fill="#F2F2F2" d="M446.326,271.255h22.48l-0.953,6.629h-0.939c-0.164-2.139-0.584-5.191-7.291-5.191
	c-2.182,0-4.154,0.051-6.133,0.205c-0.08,0.992-0.164,1.936-0.164,2.883v8.734c1.813,0.244,3.625,0.402,5.436,0.402
	c3.084,0,5.807-0.443,6.631-3.824h0.822l-1.236,9.1h-0.826c0-3.99-3.209-4.039-6.383-4.039c-1.482,0-2.957,0.129-4.443,0.254v9.504
	c0,0.949,0.084,1.896,0.164,2.885c1.771,0.252,3.498,0.332,5.271,0.332c4.322,0,7.904-0.039,9.836-4.285l0.621-1.357h0.988
	l-1.441,7.081h-22.439v-0.823c1.814,0,2.674-0.535,3.094-2.307c0.656-2.797,0.695-8.648,0.695-11.523
	c0-2.885-0.039-8.729-0.695-11.531c-0.42-1.77-1.279-2.301-3.094-2.301V271.255z"/>
<path fill="#F2F2F2" d="M475.855,271.255h11.734c4.654,0,10.123,1.488,10.123,7.041c0,6.295-6.295,7.771-8.398,8.066
	c0.865,0.701,1.646,1.807,2.473,2.801l7.328,8.311c1.936,2.189,3.746,2.232,5.148,2.27v0.822h-7.49
	c-0.744-1.518-6.795-8.525-9.596-11.727c-1.314-1.564-2.104-2.102-3.834-2.102h-0.492v8.268c0,3.871,0.988,4.738,4.488,4.738v0.822
	h-11.484v-0.822c1.812,0,2.68-0.535,3.09-2.308c0.652-2.796,0.701-8.647,0.701-11.522c0-2.885-0.049-8.729-0.701-11.531
	c-0.41-1.77-1.277-2.301-3.09-2.301V271.255z M482.852,285.29c1.609,0.213,2.553,0.213,3.42,0.213c4.199,0,7.492-1.568,7.492-6.428
	c0-1.688-0.947-6.383-7.82-6.383c-1.359,0-1.77,0.051-2.918,0.205c-0.086,1.404-0.174,2.719-0.174,5.807V285.29z"/>
<path fill="#F2F2F2" d="M369.412,141.927c-5.693,5.59-14.086,12.146-18.348,14.543l-4.707-2.107
	c4.385-3.702,11.275-10.61,15.471-15.801L369.412,141.927z"/>
<polygon fill="#F2F2F2" points="507.453,272.562 507.453,271.315 516.336,271.315 516.336,272.562 512.631,272.562 512.631,282.433 
	511.154,282.433 511.154,272.562 "/>
<polygon fill="#F2F2F2" points="519.621,271.315 523.121,280.657 526.639,271.315 528.662,271.315 528.662,282.433 527.26,282.433 
	527.26,273.188 527.229,273.188 523.76,282.433 522.5,282.433 519.029,273.188 518.996,273.188 518.996,282.433 517.6,282.433 
	517.6,271.315 "/>
</svg>
