<?xml version="1.0" encoding="utf-8"?>
<!-- Generator: Adobe Illustrator 15.1.0, SVG Export Plug-In . SVG Version: 6.00 Build 0)  -->
<!DOCTYPE svg PUBLIC "-//W3C//DTD SVG 1.1//EN" "http://www.w3.org/Graphics/SVG/1.1/DTD/svg11.dtd">
<svg version="1.1" id="Layer_1" xmlns="http://www.w3.org/2000/svg" xmlns:xlink="http://www.w3.org/1999/xlink" x="0px" y="0px"
	 width="547px" height="191px" viewBox="0 0 547 191" enable-background="new 0 0 547 191" xml:space="preserve">
<path fill="#FFFFFF" d="M26.083,119.798c5.178,0,7.645-1.534,8.821-6.59c1.886-8.004,2.002-24.707,2.002-32.946
	c0-8.24-0.116-24.945-2.002-32.94c-1.176-5.066-3.643-6.593-8.821-6.593v-2.351h33.532c14.822,0,29.888,4.701,29.888,21.886
	c0,19.875-16.945,26.942-36.595,26.942c-2.588,0-4.705-0.123-6.825-0.36v19.414c0,11.067,2.827,13.538,14.002,13.538v2.354H26.083
	V119.798z M53.85,42.489c-3.059,0-4.588,0.237-7.293,0.59c-0.234,4.002-0.473,7.765-0.473,16.59v22.478
	c1.649,0.47,3.526,0.94,8.828,0.94c19.293,0,23.295-12.476,23.295-20.594C78.207,42.489,57.732,42.489,53.85,42.489"/>
<path fill="#FFFFFF" d="M183.042,122.15h-32.827v-2.354c3.178-0.237,7.176-0.698,7.176-4.705c0-1.764-1.058-8.235-4.236-16.594
	l-2.233-5.881c-5.298-0.47-11.767-0.595-17.531-0.595c-5.06,0-10.236,0.356-15.295,0.595l-3.65,10
	c-1.649,4.586-2.588,8.473-2.588,10.711c0,5.771,8.236,6.469,12,6.469v2.354H94.443v-2.354c6.119-1.06,7.994-2.112,11.764-11.293
	l24.945-61.071c-1.297-2.707-2.822-5.644-4.707-8c6.473-0.468,10-2.945,10.828-3.767h1.998c0.355,0.942,0.703,1.998,1.057,2.94
	c8.119,20.593,17.882,46.127,26.826,68.006c4.943,12.246,7.178,12.603,15.887,13.185L183.042,122.15L183.042,122.15z
	 M119.855,87.911c4.117,0.467,10.592,0.59,14.236,0.59c4.709,0,12.594-0.36,15.186-0.59c-4.949-11.295-8.832-23.181-14.713-34.121
	C129.036,64.845,124.798,76.501,119.855,87.911"/>
<path fill="#FFFFFF" d="M241.283,60.266h-2.357c0-6.714-1.528-19.185-17.53-19.185c-12.004,0-17.412,8.121-17.412,15.769
	c0,12.709,11.885,15.649,21.885,18.937c11.879,3.771,21.766,7.182,21.766,21.188c0,19.416-16.711,26.59-33.534,26.59
	c-3.648,0-12.468-0.705-23.177-4.242l4.82-23.525h2.353c0,17.652,7.77,23.648,19.649,23.648c15.654,0,20.002-12.588,20.002-19.41
	c0-8.833-3.526-11.534-19.641-17.184c-18.01-6.234-24.01-9.882-24.01-22.356c0-13.646,12.594-23.533,29.887-23.533
	c10.356,0,17.299,2.235,22.004,3.883L241.283,60.266z"/>
<path fill="#FFFFFF" d="M285.992,106.259c0,11.068,2.82,13.539,12.826,13.539v2.354h-32.832v-2.354c5.174,0,7.649-1.534,8.826-6.59
	c1.886-8.004,1.998-24.707,1.998-32.944c0-8.24-0.113-24.945-1.998-32.943c-1.177-5.065-3.651-6.59-8.826-6.59v-2.353h32.832v2.353
	c-10.006,0-12.826,2.472-12.826,13.53V106.259z"/>
<path fill="#FFFFFF" d="M357.289,36.962c25.651,0,43.77,17.058,43.77,41.302c0,27.178-19.414,45.299-46.357,45.299
	c-25.885,0-42.357-17.657-42.357-43.182C312.342,54.729,331.406,36.962,357.289,36.962 M353.879,41.081
	c-20.123,0-30.244,16.94-30.244,35.301c0,21.763,11.771,43.062,35.891,43.062c21.178,0,30.238-17.539,30.238-36.476
	C389.764,60.962,377.053,41.081,353.879,41.081"/>
<path fill="#FFFFFF" d="M417.178,38.378h25.064c-1.064,1.289-2.003,1.756-2.003,3.767c0,1.644,0.466,2.584,5.056,8.229
	c13.301,16.834,35.064,37.19,50.125,52.826V72.023c0-6.116,0-22.594-1.527-26.94c-1.178-3.412-5.062-3.885-8.236-4.353v-2.353
	h27.418v2.353c-7.531,0.228-12.24,2.121-12.828,9.884c-0.705,9.293-0.705,18.825-0.705,28.237c0,14.707,0.115,29.653,0.475,44.711
	h-1.891c-0.584-0.828-0.938-1.644-1.879-2.479c-13.883-19.178-44.828-50.235-63.182-68.24c-0.471,9.416-0.354,27.539-0.354,35.068
	c0,29.532,0.354,31.188,14.002,31.887v2.354h-29.533v-2.354c5.178-0.698,7.646-1.534,9.408-6.59
	c1.883-8.004,2.006-24.707,2.006-32.944c0-8.24-0.123-24.947-2.006-32.943c-1.176-5.065-4.23-6.239-9.408-6.59L417.178,38.378
	L417.178,38.378z"/>
<path fill="#FFFFFF" d="M275.104,142.255h14.326c9.553,0,16.219,3.744,16.219,14.117c0,10.09-7.732,15.192-17.199,15.192h-13.344
	v-0.821c1.813,0,2.678-0.535,3.088-2.308c0.66-2.797,0.701-8.646,0.701-11.523c0-2.885-0.041-8.729-0.701-11.53
	c-0.41-1.771-1.274-2.301-3.088-2.301v-0.826H275.104z M282.104,164.977c0,1.526,0.086,3.14,0.17,4.567
	c1.273,0.332,3.582,0.584,6.008,0.584c7.943,0,13.418-4.692,13.418-12.808c0-9.758-5.932-13.629-14.977-13.629
	c-1.492,0-3.465,0.052-4.449,0.205c-0.084,1.606-0.17,3.22-0.17,4.733V164.977L282.104,164.977z"/>
<path fill="#FFFFFF" d="M311.924,142.255h22.479l-0.949,6.629h-0.949c-0.16-2.139-0.58-5.19-7.285-5.19
	c-2.18,0-4.157,0.052-6.131,0.205c-0.088,0.992-0.168,1.937-0.168,2.884v8.733c1.811,0.243,3.625,0.401,5.438,0.401
	c3.086,0,5.805-0.442,6.621-3.824h0.824l-1.234,9.101h-0.822c0-3.989-3.207-4.039-6.377-4.039c-1.484,0-2.971,0.13-4.449,0.255
	v9.504c0,0.948,0.08,1.896,0.168,2.885c1.77,0.252,3.498,0.332,5.271,0.332c4.316,0,7.902-0.039,9.836-4.284l0.615-1.357h0.992
	l-1.441,7.082h-22.438v-0.823c1.812,0,2.67-0.535,3.09-2.308c0.656-2.797,0.693-8.647,0.693-11.522
	c0-2.886-0.037-8.729-0.693-11.531c-0.42-1.77-1.276-2.301-3.09-2.301v-0.828h-0.002V142.255z"/>
<path fill="#FFFFFF" d="M373.938,165.843c1.191-2.307,2.385-4.532,3.58-6.786c2.918-5.519,3.289-6.265,4.652-8.938
	c0.943-1.85,2.092-4.367,2.092-5.93c0-0.857-0.324-1.279-0.898-1.936h10.004v0.826c-4.322,0.166-4.24,1.648-4.24,4.482
	c0,5.887,0.041,16.883,0.496,20.297c0.285,2.143,1.029,2.549,4.404,2.883v0.822h-11.408v-0.822c3.299-0.117,3.547-0.74,3.547-10.789
	c0-4.318-0.248-8.6-0.373-12.838h-0.084c-0.324,1.068-3.127,6.086-6.008,11.357c-2.881,5.316-5.85,10.988-6.385,13.59h-0.697
	c-2.018-6.141-8.562-19.354-12.148-24.947h-0.078c-0.166,3.906-0.576,13.822-0.576,17.617c0,5.395,0.74,5.762,4.732,6.01v0.822
	h-10.17v-0.822c3.045-0.412,3.133-1.607,3.543-5.479c0.25-2.309,0.824-10.697,0.824-15.434c0-3.949,0-6.387-3.625-6.752v-0.826
	h9.057c-0.291,0.246-0.779,0.654-0.779,1.488c0,1.066,0.734,2.545,1.979,4.973L373.938,165.843z"/>
<path fill="#FFFFFF" d="M398.441,142.255h11.359v0.826c-2.549,0.285-4.364,0.405-4.364,4.651v12.267
	c0,6.627,3.212,10.166,9.267,10.166c7.98,0,10.049-6.662,10.049-13.295v-5.479c0-6.457,0-8.19-3.463-8.31v-0.826h9.592v0.826
	c-4.482,0.117-4.482,3.535-4.482,8.021v6.262c0,9.177-2.801,14.701-12.725,14.701c-8.234,0-11.689-3.336-11.689-10.83v-10.536
	c0-5.354,0-7.615-3.541-7.615L398.441,142.255L398.441,142.255z"/>
<path fill="#FFFFFF" d="M434.594,142.255h11.488v0.826c-2.759,0-4.238,0.867-4.238,4.735v18.188c0,3.998-0.043,6.309-0.99,7.627
	c-1.648,2.295-6.055,5.467-8.393,5.467c-0.949,0-2.225-0.951-2.225-2.971c0-0.447,0-0.857,0.205-1.184
	c0.369-0.617,2.059-1.312,2.752-1.312c0.498,0,0.498,0.406,0.498,0.695c0,0.943,0,2.012,1.27,2.012c1.979,0,3.055-2.26,3.301-4.195
	c0.246-1.896,0.367-7.951,0.367-15.229c0-2.887-0.043-8.729-0.697-11.531c-0.414-1.771-1.279-2.301-3.338-2.301V142.255
	L434.594,142.255z"/>
<path fill="#FFFFFF" d="M450.326,142.255h22.479l-0.953,6.629h-0.938c-0.164-2.139-0.584-5.19-7.291-5.19
	c-2.182,0-4.154,0.052-6.133,0.205c-0.08,0.992-0.164,1.937-0.164,2.884v8.733c1.812,0.243,3.625,0.401,5.436,0.401
	c3.084,0,5.809-0.442,6.631-3.824h0.822l-1.234,9.101h-0.826c0-3.989-3.209-4.039-6.383-4.039c-1.482,0-2.957,0.13-4.443,0.255
	v9.504c0,0.948,0.084,1.896,0.164,2.885c1.771,0.252,3.498,0.332,5.271,0.332c4.322,0,7.904-0.039,9.836-4.284l0.621-1.357h0.988
	l-1.441,7.082h-22.438v-0.823c1.812,0,2.674-0.535,3.094-2.308c0.656-2.797,0.695-8.647,0.695-11.522
	c0-2.886-0.039-8.729-0.695-11.531c-0.42-1.77-1.278-2.301-3.094-2.301L450.326,142.255L450.326,142.255z"/>
<path fill="#FFFFFF" d="M479.855,142.255h11.732c4.654,0,10.123,1.488,10.123,7.041c0,6.295-6.295,7.771-8.396,8.065
	c0.863,0.701,1.646,1.808,2.473,2.802l7.328,8.312c1.936,2.188,3.746,2.231,5.146,2.271v0.821h-7.488
	c-0.744-1.519-6.797-8.524-9.598-11.728c-1.312-1.563-2.104-2.103-3.834-2.103h-0.492v8.269c0,3.871,0.988,4.738,4.488,4.738v0.821
	h-11.483v-0.821c1.812,0,2.681-0.535,3.091-2.308c0.65-2.797,0.699-8.647,0.699-11.522c0-2.886-0.049-8.729-0.699-11.531
	c-0.41-1.771-1.277-2.301-3.091-2.301L479.855,142.255L479.855,142.255z M486.852,156.29c1.609,0.213,2.555,0.213,3.422,0.213
	c4.197,0,7.49-1.567,7.49-6.428c0-1.688-0.945-6.384-7.818-6.384c-1.359,0-1.771,0.052-2.918,0.205
	c-0.086,1.403-0.176,2.72-0.176,5.808V156.29z"/>
<path fill="#FFFFFF" d="M373.412,12.927c-5.693,5.591-14.086,12.146-18.348,14.543l-4.707-2.105
	c4.385-3.702,11.273-10.61,15.471-15.802L373.412,12.927z"/>
<polygon fill="#FFFFFF" points="511.453,143.562 511.453,142.314 520.336,142.314 520.336,143.562 516.631,143.562 516.631,153.434 
	515.154,153.434 515.154,143.562 "/>
<polygon fill="#FFFFFF" points="523.621,142.314 527.121,151.657 530.639,142.314 532.662,142.314 532.662,153.434 531.26,153.434 
	531.26,144.188 531.229,144.188 527.76,153.434 526.5,153.434 523.029,144.188 522.996,144.188 522.996,153.434 521.6,153.434 
	521.6,142.314 "/>
</svg>
